<svg viewBox="0 0 96 96" fill="currentColor" xmlns="http://www.w3.org/2000/svg">
  <path
    d="M20.9336 34.8438L20.6699 37.1113C19.1934 36.9004 17.9277 36.7949 16.873 36.7949C14.4473 36.7949 12.4434 37.5332 10.8613 39.0098C9.2793 40.4512 8.18945 42.1738 7.5918 44.1777C7.0293 46.1465 6.74805 48.3438 6.74805 50.7695C6.74805 51.8945 6.81836 52.8965 6.95898 53.7754C7.09961 54.6543 7.3457 55.5156 7.69727 56.3594C8.08398 57.2031 8.66406 57.8711 9.4375 58.3633C10.2461 58.8203 11.2305 59.0488 12.3906 59.0488C13.9375 59.0488 15.9062 58.75 18.2969 58.1523C19.0352 57.8711 19.6152 57.7305 20.0371 57.7305C20.8809 57.7305 21.3906 58.7148 21.5664 60.6836C18.4727 61.668 15.6074 62.1602 12.9707 62.1602C9.13867 62.1602 6.53711 61.2285 5.16602 59.3652C3.83008 57.4668 3.16211 54.4082 3.16211 50.1895C3.16211 47.7285 3.32031 45.584 3.63672 43.7559C3.98828 41.8926 4.58594 40.1699 5.42969 38.5879C6.27344 36.9707 7.48633 35.7402 9.06836 34.8965C10.6855 34.0527 12.6543 33.6309 14.9746 33.6309C17.5762 33.6309 19.5625 34.0352 20.9336 34.8438ZM40.498 35.582L39.9707 37.6914C36.5605 36.2852 33.9062 35.582 32.0078 35.582C30.3203 35.582 29.125 35.8457 28.4219 36.373C27.7539 36.8652 27.4199 37.9375 27.4199 39.5898C27.4199 40.9258 27.8945 42.0332 28.8438 42.9121C29.8281 43.791 31.0059 44.4941 32.377 45.0215C33.748 45.5137 35.1191 46.0586 36.4902 46.6562C37.8965 47.2188 39.0742 48.0625 40.0234 49.1875C41.0078 50.3125 41.5 51.7012 41.5 53.3535C41.5 55.6035 40.6738 57.5723 39.0215 59.2598C37.3691 60.9473 35.2246 61.8086 32.5879 61.8438C30.6543 61.8438 28.8438 61.4395 27.1562 60.6309C25.4688 59.8223 24.1328 58.8027 23.1484 57.5723L24.6777 55.9902C25.0996 56.166 25.7148 56.4473 26.5234 56.834C27.3672 57.2207 27.9648 57.4844 28.3164 57.625C28.668 57.7305 29.1777 57.8535 29.8457 57.9941C30.5488 58.1348 31.2871 58.2051 32.0605 58.2051C33.7129 58.2051 35.0664 57.8359 36.1211 57.0977C37.1758 56.3594 37.7031 55.3223 37.7031 53.9863C37.7031 53.1074 37.457 52.3691 36.9648 51.7715C36.4727 51.1387 35.8223 50.6289 35.0137 50.2422C34.2051 49.8555 33.3086 49.4863 32.3242 49.1348C31.375 48.7832 30.4082 48.3965 29.4238 47.9746C28.4746 47.5176 27.5957 46.9902 26.7871 46.3926C25.9785 45.7598 25.3281 44.916 24.8359 43.8613C24.3438 42.8066 24.0977 41.5586 24.0977 40.1172C24.0977 38.0078 24.6602 36.25 25.7852 34.8438C26.9453 33.4023 28.5625 32.6816 30.6367 32.6816C31.4453 32.6816 32.3594 32.8047 33.3789 33.0508C34.3984 33.2969 35.207 33.5254 35.8047 33.7363C36.4023 33.9473 37.2812 34.2988 38.4414 34.791C39.6367 35.248 40.3223 35.5117 40.498 35.582ZM62.4883 34.8438L62.2246 37.1113C60.748 36.9004 59.4824 36.7949 58.4277 36.7949C56.002 36.7949 53.998 37.5332 52.416 39.0098C50.834 40.4512 49.7441 42.1738 49.1465 44.1777C48.584 46.1465 48.3027 48.3438 48.3027 50.7695C48.3027 51.8945 48.373 52.8965 48.5137 53.7754C48.6543 54.6543 48.9004 55.5156 49.252 56.3594C49.6387 57.2031 50.2188 57.8711 50.9922 58.3633C51.8008 58.8203 52.7852 59.0488 53.9453 59.0488C55.4922 59.0488 57.4609 58.75 59.8516 58.1523C60.5898 57.8711 61.1699 57.7305 61.5918 57.7305C62.4355 57.7305 62.9453 58.7148 63.1211 60.6836C60.0273 61.668 57.1621 62.1602 54.5254 62.1602C50.6934 62.1602 48.0918 61.2285 46.7207 59.3652C45.3848 57.4668 44.7168 54.4082 44.7168 50.1895C44.7168 47.7285 44.875 45.584 45.1914 43.7559C45.543 41.8926 46.1406 40.1699 46.9844 38.5879C47.8281 36.9707 49.041 35.7402 50.623 34.8965C52.2402 34.0527 54.209 33.6309 56.5293 33.6309C59.1309 33.6309 61.1172 34.0352 62.4883 34.8438ZM82.3924 58.14C84.8858 57.9053 86.8804 57.0547 88.3764 55.588C89.9018 54.092 90.6644 51.7893 90.6644 48.68C90.6644 46.656 90.5471 44.7933 90.3124 43.092C90.0778 41.3613 89.7258 39.4693 89.2564 37.416H93.0844C93.5538 39.3813 93.8911 41.244 94.0964 43.004C94.3311 44.764 94.4484 46.612 94.4484 48.548C94.4484 51.5693 93.9058 54.004 92.8204 55.852C91.7351 57.6707 90.2831 59.02 88.4644 59.9C86.6458 60.7507 84.6218 61.2493 82.3924 61.396V71.56H78.6084V61.396C76.3791 61.308 74.3991 60.8533 72.6684 60.032C70.9378 59.2107 69.5738 57.92 68.5764 56.16C67.6084 54.3707 67.1244 52.024 67.1244 49.12V37.416H70.9524V49.252C70.9524 51.452 71.3044 53.1827 72.0084 54.444C72.7124 55.7053 73.6511 56.6147 74.8244 57.172C75.9978 57.7293 77.2591 58.0667 78.6084 58.184V27.604H82.3924V58.14Z" />
</svg>