<svg viewBox="0 0 96 96" fill="#DDDDDD" xmlns="http://www.w3.org/2000/svg">
  <path
    d="M2.06738 58.832L2.29199 27.207C2.62142 26.099 3.90918 25.5449 6.15527 25.5449C8.22168 25.5449 10.1234 25.8294 11.8604 26.3984C13.5973 26.9375 15.0498 27.8659 16.2178 29.1836C17.4157 30.4714 18.0146 32.0286 18.0146 33.8555C18.0146 35.293 17.6553 36.6855 16.9365 38.0332C16.2477 39.3809 15.3942 40.2493 14.376 40.6387C16.2926 40.9082 17.835 42.0612 19.0029 44.0977C20.1709 46.1341 20.7549 48.5449 20.7549 51.3301C20.7549 53.2168 20.0062 54.8639 18.5088 56.2715C17.0114 57.6491 15.2594 58.6523 13.2529 59.2812C11.2764 59.8802 9.26986 60.1797 7.2334 60.1797C4.74772 60.1797 3.02572 59.7305 2.06738 58.832ZM5.75098 43.1094C5.75098 45.1758 5.72103 49.3236 5.66113 55.5527C6.55957 56.571 7.71256 57.0801 9.12012 57.0801C10.9769 57.0801 12.7738 56.3164 14.5107 54.7891C16.2477 53.2318 17.1162 51.5697 17.1162 49.8027C17.1162 47.6165 16.3825 45.9095 14.915 44.6816C13.4476 43.4538 11.5609 42.8398 9.25488 42.8398C7.72754 42.8398 6.55957 42.9297 5.75098 43.1094ZM5.66113 39.7852L8.44629 39.7402C10.363 39.7402 11.8304 39.1862 12.8486 38.0781C13.8968 36.9401 14.4209 35.5924 14.4209 34.0352C14.4209 32.4479 13.8968 31.0853 12.8486 29.9473C11.8005 28.7793 10.348 28.1953 8.49121 28.1953C7.65267 28.1953 6.66439 28.375 5.52637 28.7344C5.58626 30.5612 5.61621 32.8223 5.61621 35.5176C5.64616 38.2129 5.66113 39.6354 5.66113 39.7852Z" />
  <path
    d="M25.1572 48.9043L24.9775 46.3887C25.0674 46.3887 25.2021 46.4036 25.3818 46.4336C25.5915 46.4336 25.7412 46.4336 25.8311 46.4336C28.8558 46.4336 30.3682 45.1159 30.3682 42.4805C30.0387 40.1745 28.766 39.0215 26.5498 39.0215C25.7113 39.0215 24.4834 39.2611 22.8662 39.7402L22.0576 38.4375C23.3154 37.2695 25.1123 36.6855 27.4482 36.6855C29.0954 36.6855 30.473 37.1048 31.5811 37.9434C32.6891 38.7819 33.2432 40.0098 33.2432 41.627C33.2432 42.6152 33.0485 43.5885 32.6592 44.5469C32.2699 45.4753 31.7607 46.179 31.1318 46.6582C32.2699 46.8978 33.1533 47.6764 33.7822 48.9941C34.4411 50.2819 34.7705 51.7344 34.7705 53.3516C34.7705 55.4479 34.0967 57.2747 32.749 58.832C31.4014 60.3893 29.6644 61.168 27.5381 61.168C26.4899 61.168 25.2321 60.8685 23.7646 60.2695C22.2972 59.6706 21.5635 58.9219 21.5635 58.0234C21.5635 57.3945 21.9678 57.0801 22.7764 57.0801C23.3154 57.0801 24.0192 57.3346 24.8877 57.8438C25.7562 58.3229 26.4749 58.5625 27.0439 58.5625C28.3018 58.5625 29.4098 58.0085 30.3682 56.9004C31.3265 55.7923 31.8057 54.5645 31.8057 53.2168C31.8057 51.7793 31.2965 50.7012 30.2783 49.9824C29.29 49.2337 28.0173 48.8594 26.46 48.8594C25.861 48.8594 25.4268 48.8743 25.1572 48.9043Z" />
  <path
    d="M38.9932 65.8848L36.9717 65.4355C36.9717 65.1061 36.9118 64.1328 36.792 62.5156C36.6722 60.8984 36.6123 59.7305 36.6123 59.0117C36.6123 58.4128 36.6572 57.7689 36.7471 57.0801H39.667C39.8167 56.571 40.0563 55.8073 40.3857 54.7891C40.7451 53.7708 40.9847 53.0521 41.1045 52.6328C41.2243 52.2135 41.389 51.5996 41.5986 50.791C41.8382 49.9525 41.988 49.2487 42.0479 48.6797C42.1377 48.0807 42.2126 47.347 42.2725 46.4785C42.3623 45.61 42.4072 44.6966 42.4072 43.7383C42.4072 41.4922 42.3174 38.9616 42.1377 36.1465C43.8148 36.2363 45.5817 36.2962 47.4385 36.3262C49.3252 36.3561 50.8675 36.401 52.0654 36.4609C53.2633 36.5208 54.4912 36.6556 55.749 36.8652C55.8389 38.9017 55.9287 42.2559 56.0186 46.9277C56.1383 51.5697 56.2432 54.9089 56.333 56.9453H59.8369V58.293C59.8369 59.0716 59.8519 60.1797 59.8818 61.6172C59.9417 63.0547 59.9717 64.013 59.9717 64.4922C59.9717 65.3906 59.9417 66.0794 59.8818 66.5586L57.8604 66.1094C57.7406 65.6901 57.6208 65.151 57.501 64.4922C57.4111 63.8633 57.3063 63.1745 57.1865 62.4258C57.0667 61.6771 56.9769 61.138 56.917 60.8086C55.21 60.7188 52.4847 60.5391 48.7412 60.2695C45.0277 60 42.1227 59.8203 40.0264 59.7305L38.9932 65.8848ZM45.9111 38.9766C45.8812 39.4258 45.8512 40.3691 45.8213 41.8066C45.7913 43.2142 45.7464 44.2923 45.6865 45.041C45.6566 45.7897 45.5667 46.8379 45.417 48.1855C45.2972 49.5033 45.1325 50.6113 44.9229 51.5098C44.7132 52.3783 44.3988 53.3366 43.9795 54.3848C43.5902 55.403 43.126 56.2865 42.5869 57.0352H52.4248L53.3232 39.3359C52.904 39.306 51.7959 39.2611 49.999 39.2012C48.2321 39.1413 46.8695 39.0664 45.9111 38.9766Z" />
  <path
    d="M60.7354 50.4316C60.7354 49.2337 60.8551 47.901 61.0947 46.4336C61.3643 44.9661 61.7536 43.4238 62.2627 41.8066C62.7718 40.1895 63.5355 38.8418 64.5537 37.7637C65.5719 36.6855 66.7549 36.1465 68.1025 36.1465C70.9775 36.1465 73.2835 37.4492 75.0205 40.0547C76.7575 42.6302 77.626 45.5052 77.626 48.6797C77.626 50.0273 77.4762 51.375 77.1768 52.7227C76.9072 54.0404 76.473 55.3431 75.874 56.6309C75.2751 57.9186 74.4066 58.9967 73.2686 59.8652C72.1605 60.7038 70.8577 61.1829 69.3604 61.3027C66.6051 60.9434 64.4788 59.7754 62.9814 57.7988C61.4841 55.7923 60.7354 53.3366 60.7354 50.4316ZM68.3721 38.4824C67.3239 38.6022 66.4404 39.5605 65.7217 41.3574C65.0029 43.1543 64.5387 44.9062 64.3291 46.6133C64.1195 48.2904 64.0146 49.7728 64.0146 51.0605C64.0146 52.7376 64.5238 54.2949 65.542 55.7324C66.5902 57.14 67.7581 57.8438 69.0459 57.8438C69.9743 57.8438 70.8128 57.4844 71.5615 56.7656C72.3102 56.0469 72.8942 55.1634 73.3135 54.1152C73.7627 53.0371 74.0921 51.959 74.3018 50.8809C74.5413 49.8027 74.6611 48.8444 74.6611 48.0059C74.6611 45.5501 74.1071 43.4089 72.999 41.582C71.891 39.7552 70.3486 38.722 68.3721 38.4824Z" />
  <path
    d="M81.3545 61.123L79.4229 60.0898C80.2015 58.1432 82.238 54.3698 85.5322 48.7695C83.7952 46.4036 81.8187 42.4655 79.6025 36.9551H81.5791C82.6872 39.291 84.5589 42.3307 87.1943 46.0742C87.6436 45.4453 88.2275 44.472 88.9463 43.1543C89.695 41.8366 90.4137 40.6986 91.1025 39.7402C91.8213 38.7819 92.6299 37.9434 93.5283 37.2246C94.6064 37.8236 95.1455 38.5273 95.1455 39.3359C95.1455 39.7852 95.0407 40.2194 94.8311 40.6387C94.0225 41.627 92.9893 43.1842 91.7314 45.3105C90.4736 47.4368 89.695 48.7246 89.3955 49.1738C92.57 53.6061 94.7113 56.9453 95.8193 59.1914C95.8193 60.3294 95.3102 60.8984 94.292 60.8984C93.2738 60.8984 92.4951 60.4043 91.9561 59.416C91.417 57.6191 89.9945 55.0736 87.6885 51.7793C87.1794 52.6178 86.1312 54.1452 84.5439 56.3613C82.9867 58.5475 81.9235 60.1348 81.3545 61.123Z" />
  <path d="M19.1436 65.7606L35.4083 28.1703L36.3786 30.3225L21.5797 66.5007L19.1436 65.7606Z" />
  <path d="M34.197 63.5982L20 33.186L22.1349 33.6335L36.3929 62.3218L34.197 63.5982Z" />
</svg>