<svg viewBox="0 0 96 96" fill="currentColor" xmlns="http://www.w3.org/2000/svg">
<path d="M10.3437 34.5625L26.1406 34.7031L27.2187 57.4375C26.9375 58.375 26.3906 58.8438 25.5781 58.8438C25.0156 58.8438 24.4687 58.6094 23.9375 58.1406C23.4062 57.7031 23.0781 57.1562 22.9531 56.5C22.9844 55.9375 23.0312 54.1719 23.0937 51.2031C23.1875 48.2031 23.2812 45.3438 23.375 42.625C23.4687 39.875 23.5312 38.0937 23.5625 37.2812C22.6875 37.2187 21.3906 37.1875 19.6719 37.1875C17.3281 37.1875 15.375 37.0938 13.8125 36.9062C13.9062 37.9375 13.9844 41.2656 14.0469 46.8906C14.1094 52.4844 14.1719 55.7344 14.2344 56.6406C13.9531 57.6094 13.4062 58.0938 12.5937 58.0938C12.0312 58.0938 11.4844 57.875 10.9531 57.4375C10.4531 56.9688 10.1406 56.4062 10.0156 55.75C10.1094 54.1875 10.1562 52.625 10.1562 51.0625C10.1562 50.25 10.1406 48.9062 10.1094 47.0312C10.0781 45.1562 10.0625 43.6719 10.0625 42.5781C10.0625 39.3594 10.1562 36.6875 10.3437 34.5625Z" />
<path d="M31.5781 33.3438L34.2031 33.8125C34.2031 34.4688 34.2187 34.9531 34.25 35.2656C35.9687 34.1719 37.7031 33.625 39.4531 33.625C42.2969 33.625 44.5156 34.8437 46.1094 37.2812C47.7031 39.7187 48.5 42.4844 48.5 45.5781C48.5 47.1406 48.375 48.6406 48.125 50.0781C47.9062 51.4844 47.5 52.9375 46.9062 54.4375C46.3125 55.9062 45.3906 57.0938 44.1406 58C42.9219 58.875 41.4375 59.3125 39.6875 59.3125C38.0312 59.3125 36.4375 58.875 34.9062 58C35.0312 63.4688 35.1406 67.5312 35.2344 70.1875C34.9531 71.1562 34.4062 71.6406 33.5937 71.6406C33.0312 71.6406 32.4844 71.4062 31.9531 70.9375C31.4531 70.5 31.1406 69.9531 31.0156 69.2969L31.5781 33.3438ZM34.625 38.3125L34.7656 53.4531C35.1406 54.2031 35.7187 54.8125 36.5 55.2812C37.2812 55.7188 38.1406 55.9375 39.0781 55.9375C40.2969 55.9375 41.3281 55.5469 42.1719 54.7656C43.0469 53.9844 43.6562 52.9531 44 51.6719C44.375 50.3594 44.625 49.1406 44.75 48.0156C44.9062 46.8906 44.9844 45.7031 44.9844 44.4531C44.9844 39.1406 43.1875 36.4844 39.5937 36.4844C38.4375 36.4844 37.3594 36.6562 36.3594 37C35.3906 37.3125 34.8125 37.75 34.625 38.3125Z" />
<path d="M71.1875 53.4531L71.6562 55.5156C70.2812 56.0156 68.2344 56.5781 65.5156 57.2031C62.8281 57.7969 60.8281 58.0938 59.5156 58.0938C58.1719 58.0938 57 57.6562 56 56.7812C55 55.875 54.25 54.7344 53.75 53.3594C53.25 51.9531 52.875 50.5781 52.625 49.2344C52.4062 47.8594 52.2969 46.5156 52.2969 45.2031C52.2969 37.3906 55.8281 33.4844 62.8906 33.4844C64.5781 33.4844 66.0625 34.0312 67.3437 35.125C68.625 36.1875 69.2656 37.5781 69.2656 39.2969C69.2656 40.2344 69 41.0625 68.4687 41.7812C67.9687 42.5 67.3437 43.0781 66.5937 43.5156C65.875 43.9219 64.9375 44.2969 63.7812 44.6406C62.6562 44.9844 61.6562 45.2344 60.7812 45.3906C59.9062 45.5469 58.8594 45.7188 57.6406 45.9062C56.4219 46.0938 55.5781 46.2344 55.1094 46.3281C55.1406 47.2344 55.1875 48.0312 55.25 48.7188C55.3437 49.4062 55.5 50.1562 55.7187 50.9687C55.9687 51.75 56.2812 52.4062 56.6562 52.9375C57.0625 53.4375 57.6094 53.8594 58.2969 54.2031C58.9844 54.5469 59.7969 54.7188 60.7344 54.7188C61.8594 54.7188 63.2344 54.625 64.8594 54.4375C66.4844 54.2188 67.9219 54 69.1719 53.7812C70.4531 53.5625 71.125 53.4531 71.1875 53.4531ZM55.2969 43.4219C59.5469 42.2031 63.0312 40.9219 65.75 39.5781C65.5312 38.5469 65.2344 37.7969 64.8594 37.3281C64.4844 36.8594 63.9219 36.625 63.1719 36.625C61.2656 36.625 59.5312 37.2812 57.9687 38.5937C56.4375 39.9062 55.5469 41.5156 55.2969 43.4219Z" />
<path d="M73.0625 44.0312L72.5469 41.9219L88.1562 40.8438C88.9375 40.875 89.5937 41.1719 90.125 41.7344C90.6875 42.2656 90.9687 42.8438 90.9687 43.4688C90.9687 43.875 90.8125 44.2344 90.5 44.5469C90.1875 44.8594 89.7187 45.0469 89.0937 45.1094L73.0625 44.0312Z" />
<path d="M5 25H75L74 37.1875L71.6562 35.9844L72.5469 28L7 27L5 25Z" />
</svg>
