<svg width="217" height="67" viewBox="0 0 217 67" fill="none" xmlns="http://www.w3.org/2000/svg">
  <path name="1" d="M0 0L217 1L213.5 64.5L2.5 67L0 0Z" fill="#2D2D4D" fill-opacity="0.7" />
</svg>
<svg width="217" height="65" viewBox="0 0 217 65" fill="none" xmlns="http://www.w3.org/2000/svg">
  <path name="2" d="M0 65H217L212.469 0L3.01155 2.9771L0 65Z" fill="#2D2D4D" fill-opacity="0.7" />
</svg>

<svg width="217" height="65" viewBox="0 0 217 65" fill="none" xmlns="http://www.w3.org/2000/svg">
  <path name="3" d="M0 0H217L214.469 65L3.01155 64.0229L0 0Z" fill="#2D2D4D" fill-opacity="0.7" />
</svg>
<svg width="217" height="65" viewBox="0 0 217 65" fill="none" xmlns="http://www.w3.org/2000/svg">
  <path name="4" d="M0 65H217L210.149 1.370L4.2861 2.9771L0 65Z" fill="#2D2D4D" fill-opacity="0.7" />
</svg>

<svg width="217" height="65" viewBox="0 0 217 65" fill="none" xmlns="http://www.w3.org/2000/svg">
  <path name="5" d="M0 0H217L213.469 65L4.01155 63.0229L0 0Z" fill="#2D2D4D" fill-opacity="0.7" />
</svg>
<svg width="217" height="67" viewBox="0 0 217 67" fill="none" xmlns="http://www.w3.org/2000/svg">
  <path name="6" d="M0 67L217 66L211.5 4.5L1.5 0L0 67Z" fill="#2D2D4D" fill-opacity="0.7" />
</svg>