<svg viewBox="0 0 96 96" fill="currentColor" xmlns="http://www.w3.org/2000/svg">
<path d="M30.3359 9.39551L32.2578 8.78613C32.6016 9.94238 32.9297 14.2861 33.2422 21.8174C33.586 29.3174 33.8203 33.3486 33.9453 33.9111C33.6641 34.8799 33.1172 35.3643 32.3047 35.3643C31.7422 35.3643 31.1953 35.1299 30.6641 34.6611C30.1641 34.1924 29.8516 33.6299 29.7266 32.9736C29.7891 31.1924 29.8516 28.4893 29.9141 24.8643C28.2891 25.2705 26.9453 25.4736 25.8828 25.4736C24.2578 25.4736 22.8516 25.1455 21.6641 24.4893C20.4766 23.833 19.5547 22.9268 18.8984 21.7705C18.2734 20.6143 17.8203 19.3955 17.5391 18.1143C17.2578 16.8018 17.1172 15.3955 17.1172 13.8955C17.1172 12.708 17.2734 11.1455 17.5859 9.20801L19.6953 9.72363C19.7266 10.1299 19.7734 10.9111 19.8359 12.0674C19.9297 13.1924 20.0078 14.0049 20.0703 14.5049C20.1328 15.0049 20.2266 15.7236 20.3516 16.6611C20.5078 17.5674 20.7109 18.2549 20.9609 18.7236C21.2422 19.1611 21.5703 19.6455 21.9453 20.1768C22.3516 20.708 22.8516 21.083 23.4453 21.3018C24.0703 21.5205 24.7891 21.6299 25.6016 21.6299C26.6328 21.6299 28.0703 21.333 29.9141 20.7393C29.9141 19.9268 29.9922 18.1299 30.1484 15.3486C30.3047 12.5361 30.3828 10.7861 30.3828 10.0986C30.3828 9.69238 30.3672 9.45801 30.3359 9.39551Z" />
<path d="M36.5156 40.1973L38.625 40.666C38.7188 42.7598 38.7656 47.8535 38.7656 55.9473C38.7656 59.9785 38.8125 62.9004 38.9063 64.7129C36.5313 64.7754 33.4375 64.8067 29.625 64.8067C22.25 64.8067 17.375 64.7285 15 64.5723C15.0938 62.791 15.2031 58.8379 15.3281 52.7129C15.4531 46.5566 15.625 42.1348 15.8438 39.4473L17.9531 39.9629C18.1719 42.5879 18.3438 46.6035 18.4688 52.0098C18.5938 57.416 18.6719 60.6504 18.7031 61.7129C19.3906 61.6504 20.625 61.6192 22.4063 61.6192C24.2188 61.5879 25.3906 61.5567 25.9219 61.5254C25.9844 60.4317 26.0156 58.7129 26.0156 56.3691C26.0156 55.4629 26 54.0723 25.9688 52.1973C25.9688 50.3223 25.9688 48.916 25.9688 47.9785C25.9688 44.916 26.0781 42.2285 26.2969 39.916L28.4063 40.3848C28.5938 42.8848 28.7344 46.8066 28.8281 52.1504C28.9531 57.4941 29.0313 60.5567 29.0625 61.3379C32.25 61.3379 34.4844 61.3223 35.7656 61.291C35.8594 59.416 35.9688 56.0254 36.0938 51.1191C36.25 46.2129 36.3906 42.5723 36.5156 40.1973Z" />
<path d="M41.2031 43.0566L40.7813 40.9941C44.9688 40.7441 51.5625 40.4004 60.5625 39.9629C61.3125 39.9941 61.9531 40.2754 62.4844 40.8066C63.0156 41.3379 63.2813 41.9004 63.2813 42.4941C63.2813 43.4316 62.6563 43.9629 61.4063 44.0879L52.6406 43.666C52.7969 46.0098 52.875 49.4316 52.875 53.9316C52.9063 58.4004 52.9688 61.666 53.0625 63.7285C52.7813 64.6348 52.2344 65.0879 51.4219 65.0879C50.8906 65.0879 50.375 64.8692 49.875 64.4317C49.375 63.9942 49.0625 63.4629 48.9375 62.8379C49.375 55.1504 49.8281 48.6973 50.2969 43.4785L41.2031 43.0566Z" />
<path d="M63.4219 54.5879C63.4219 53.3379 63.5469 51.9473 63.7969 50.416C64.0781 48.8848 64.4844 47.2754 65.0156 45.5879C65.5469 43.9004 66.3438 42.4941 67.4063 41.3691C68.4688 40.2441 69.7031 39.6816 71.1094 39.6816C74.1094 39.6816 76.5156 41.041 78.3281 43.7598C80.1406 46.4473 81.0469 49.4473 81.0469 52.7598C81.0469 54.166 80.8906 55.5723 80.5781 56.9785C80.2969 58.3535 79.8438 59.7129 79.2188 61.0567C78.5938 62.4004 77.6875 63.5254 76.5 64.4317C75.3438 65.3067 73.9844 65.8067 72.4219 65.9317C69.5469 65.5567 67.3281 64.3379 65.7656 62.2754C64.2031 60.1817 63.4219 57.6191 63.4219 54.5879ZM71.3906 42.1191C70.2969 42.2441 69.375 43.2441 68.625 45.1191C67.875 46.9941 67.3906 48.8223 67.1719 50.6035C66.9531 52.3535 66.8438 53.9004 66.8438 55.2441C66.8438 56.9941 67.375 58.6191 68.4375 60.1192C69.5313 61.5879 70.75 62.3223 72.0938 62.3223C73.0625 62.3223 73.9375 61.9473 74.7188 61.1973C75.5 60.4473 76.1094 59.5254 76.5469 58.4316C77.0156 57.3066 77.3594 56.1816 77.5781 55.0566C77.8281 53.9316 77.9531 52.9316 77.9531 52.0566C77.9531 49.4941 77.375 47.2598 76.2188 45.3535C75.0625 43.4473 73.4531 42.3691 71.3906 42.1191Z" />
<path d="M14.4999 69.0723L36.275 35.6349L36.7157 37.7671L16.5171 70.0464L14.4999 69.0723Z" />
</svg>
