<svg viewBox="0 0 96 96" xmlns="http://www.w3.org/2000/svg" fill="currentColor">
    <path d="M85.6251 50.9745C87.6519 49.9194 88.4546 47.4094 87.2281 45.4814C83.2623 39.2474 77.893 34.0016 71.5276 30.1768C63.9768 25.6399 55.3185 23.2793 46.5098 23.3562C37.7012 23.4331 29.0854 25.9443 21.6149 30.6124C15.3172 34.5476 10.0403 39.8864 6.18392 46.1887C4.99128 48.1377 5.83761 50.6334 7.88253 51.6529C9.92745 52.6725 12.3939 51.8268 13.6217 49.8997C16.7731 44.9535 20.9969 40.7559 25.9998 37.6297C32.1761 33.7704 39.2994 31.6941 46.5821 31.6306C53.8647 31.567 61.0231 33.5186 67.2658 37.2696C72.3226 40.308 76.619 44.4312 79.8562 49.3217C81.1175 51.227 83.5983 52.0296 85.6251 50.9745Z"/>
    <path d="M8.22738 45.0258C6.201 46.0806 5.39851 48.5901 6.62469 50.5177C10.5906 56.752 15.96 61.9982 22.3257 65.8231C29.8764 70.36 38.5348 72.7206 47.3434 72.6437C56.1521 72.5668 64.7679 70.0555 72.2383 65.3875C78.5363 61.4521 83.8134 56.1131 87.6698 49.8105C88.8622 47.8618 88.016 45.3667 85.9715 44.3473C83.927 43.328 81.4611 44.1735 80.2336 46.1002C77.082 51.047 72.8578 55.2451 67.8543 58.3716C61.6778 62.2312 54.5542 64.3075 47.2712 64.3711C39.9882 64.4346 32.8295 62.4829 26.5865 58.7318C21.5292 55.693 17.2325 51.5693 13.995 46.6783C12.734 44.7733 10.2538 43.9709 8.22738 45.0258Z"/>
    <path d="M64.4266 48C64.4266 57.665 56.5916 65.5 46.9266 65.5C37.2616 65.5 29.4266 57.665 29.4266 48C29.4266 38.335 37.2616 30.5 46.9266 30.5C56.5916 30.5 64.4266 38.335 64.4266 48ZM37.8573 48C37.8573 53.0088 41.9178 57.0692 46.9266 57.0692C51.9354 57.0692 55.9958 53.0088 55.9958 48C55.9958 42.9912 51.9354 38.9308 46.9266 38.9308C41.9178 38.9308 37.8573 42.9912 37.8573 48Z"/>
    <rect x="14.5164" y="74.7534" width="83.67" height="8" rx="4" transform="rotate(-45 14.5164 74.7534)"/>
</svg>
