<svg  viewBox="0 0 26 52" fill="none" xmlns="http://www.w3.org/2000/svg">
  <path
    d="M2.4375 15.4191C2.4375 10.9455 3.58795 7.68711 5.29087 5.59751C6.955 3.55551 9.29422 2.4375 12.1875 2.4375C16.568 2.4375 19.3165 3.72951 20.9836 5.48274C22.6752 7.2617 23.5625 9.84034 23.5625 12.9845V37.3304C23.5625 43.1199 19.9635 48.8931 14.3561 49.5153C11.5885 49.8225 8.60357 48.5946 6.22531 46.3951C3.82952 44.1794 2.4375 41.337 2.4375 38.9535V15.4191Z"
    stroke="#DDDDDD" stroke-width="4.875" />
  <path
    d="M19.5 12.9845C19.5 16.2306 16.7275 18.546 13 19.4767C9.75 20.2883 6.5 16.5701 6.5 12.9845C6.5 9.39893 8.50546 6.49226 12.1875 6.49225C16.25 6.49224 19.5 8.11531 19.5 12.9845Z"
    fill="#DDDDDD" />
</svg>