<svg viewBox="0 0 96 96" fill="currentColor" xmlns="http://www.w3.org/2000/svg">
  <path
    d="M30.7441 28.4922L25.0312 27.2227C23.6771 23.7526 23 20.5788 23 17.7012C23 12.5384 24.9466 8.56055 28.8398 5.76758C32.8177 2.97461 37.6842 1.57812 43.4395 1.57812C51.9876 1.57812 58.8854 4.07487 64.1328 9.06836C69.3802 13.9772 72.0039 20.748 72.0039 29.3809C72.0039 33.0202 71.2845 36.2363 69.8457 39.0293C68.4069 41.7376 66.6296 43.9805 64.5137 45.7578C62.4824 47.5352 60.4089 49.3548 58.293 51.2168C56.1771 52.9941 54.3151 55.3216 52.707 58.1992C51.099 60.9922 50.168 64.2507 49.9141 67.9746C49.1523 70.5983 47.6712 71.9102 45.4707 71.9102C43.8626 71.9102 42.3815 71.1908 41.0273 69.752C39.6732 68.3131 38.8268 66.3242 38.4883 63.7852C38.4883 60.2305 39.3346 57.0566 41.0273 54.2637C42.7201 51.4707 44.7936 49.1432 47.248 47.2812C49.7025 45.3346 52.1146 43.4303 54.4844 41.5684C56.9388 39.6217 59.0124 37.2096 60.7051 34.332C62.3978 31.4544 63.2441 28.196 63.2441 24.5566C63.2441 19.9863 61.2129 16.347 57.1504 13.6387C53.0879 10.8457 48.5599 9.44922 43.5664 9.44922C39.5885 9.44922 36.2031 10.4648 33.4102 12.4961C30.7018 14.5273 29.3477 17.4473 29.3477 21.2559C29.3477 23.541 29.8132 25.9531 30.7441 28.4922ZM43.3125 78.6387C45.5977 78.6387 47.502 79.6543 49.0254 81.6855C50.5488 83.6322 51.3105 85.875 51.3105 88.4141C51.3105 90.276 50.8451 91.7995 49.9141 92.9844C49.0677 94.0846 47.8828 94.6348 46.3594 94.6348C43.9896 94.6348 42.1276 93.6615 40.7734 91.7148C39.4193 89.7682 38.7422 87.4831 38.7422 84.8594C38.7422 82.9974 39.123 81.5163 39.8848 80.416C40.7311 79.2311 41.8737 78.6387 43.3125 78.6387Z" />
</svg>