<svg width="97" height="96" viewBox="0 0 97 96" fill="none" xmlns="http://www.w3.org/2000/svg">
  <path name="outer-1"
    d="M96.8601 48C96.8601 74.5097 89.3709 96 48.9289 96C25.962 96 4.4928 79.5 0.99782 54C-0.999277 35.5 18.9623 0 45.4339 0C76.8887 0 96.8601 16.5 96.8601 48Z"
    fill="#8025D4" />
</svg>

<svg viewBox="0 0 96 96">
  <path name="outer-2"
    d="M95.7821 48C97.6148 73.5 88.4006 96 48.5402 96C13.4652 96 3.62325 73.5 0.178531 48C-1.78984 29.5 12.4811 0 45.0955 0C70.5491 0 93.5241 16.5837 95.7821 48Z"
    fill="#8025D4" />
  <path name="outer-3"
    d="M96 47.9393C96 77.4021 78.4084 95.8788 48.2512 95.8788C25.1309 95.8788 -7.84607e-05 80.3984 1.8372e-10 53.9318C7.84611e-05 27.4652 13.0681 1.99735 48.2513 -0.000145338C79.8646 -1.79496 96 16.479 96 47.9393Z"
    fill="#8025D4" />
  <path name="outer-4"
    d="M95.8152 46.2408C98.272 71.8743 75.8873 96 48.9981 96C13.9761 96 -2.09441 65.3403 0.218023 45.2356C2.18346 28.1466 16.433 0 48.9981 0C74.4134 0 92.7948 14.727 95.8152 46.2408Z"
    fill="#8025D4" />
</svg>

<!-- 0 0 86 86 is inner view box in figma -->
<svg viewBox="5.5 5 96 96">
  <path name="inner-1"
    d="M86.9893 44.5732C86.9893 67.7422 63.975 86 40.2268 86C16.4785 86 0.989258 57.6829 0.989258 41.9512C0.989258 23.5976 20.241 0 43.9893 0C71.9393 0 86.9893 21.4042 86.9893 44.5732Z"
    fill="#4B0082" />
</svg>
<svg viewBox="5.5 5.5 96 96">
  <path name="inner-2"
    d="M86.1814 44.3548C86.1814 74.0722 63.7254 86.5 40.5532 86.5C10.9146 86.5 0.181396 54.782 0.181396 38.7775C0.181396 20.1055 18.4783 0.5 41.6505 0.5C68.9225 0.5 86.1814 20.784 86.1814 44.3548Z"
    fill="#4B0082" />
  <path name="inner-3"
    d="M86.0315 45.5667C86.0315 68.7357 65.5315 86.9935 39.269 86.9935C15.5208 86.9935 0.0314941 65.0049 0.0314941 42.9448C0.0314941 24.5911 19.2832 0.993546 43.0315 0.993546C70.9815 0.993546 86.0315 22.3977 86.0315 45.5667Z"
    fill="#4B0082" />
  <path name="inner-4"
    d="M86.2217 45.0732C86.2217 74.2841 63.8924 86.5 40.851 86.5C11.3796 86.5 0.22168 58.7431 0.22168 43.0114C0.22168 24.6577 20.3558 0.5 43.3972 0.5C70.5153 0.5 86.2217 21.9041 86.2217 45.0732Z"
    fill="#4B0082" />
</svg>