<svg viewBox="0 0 96 96" fill="currentColor" xmlns="http://www.w3.org/2000/svg">
  <path d="M40.9412 6.47826L55.0588 6C55.0588 9.82609 56 17 56 17H40C40 17 41.4118 11.7391 40.9412 6.47826Z" />
  <path
    d="M70.8115 10.6045L82.3189 18.3111C80.1639 21.308 76.8725 27.4657 76.8725 27.4657L64.1361 18.307C64.1361 18.307 68.223 14.9945 70.8115 10.6045Z" />
  <path
    d="M87.1519 33.7643L90.7301 47.1437C87.1345 47.9781 80.6012 50.4414 80.6012 50.4414L77.0553 35.1598C77.0553 35.1598 82.3122 35.361 87.1519 33.7643Z" />
  <path
    d="M86.0702 67.4897L79.1851 79.5066C76.0452 77.5659 69.6729 74.7121 69.6729 74.7121L77.9209 61.3678C77.9209 61.3678 81.5104 65.2137 86.0702 67.4897Z" />
  <path
    d="M54.9121 89.199L41.0662 89.5218C41.1031 85.8308 40.2497 78.9009 40.2497 78.9009L55.9364 79.058C55.9364 79.058 54.5015 84.1192 54.9121 89.199Z" />
  <path
    d="M26.6384 84.2688L15.9221 75.4953C18.3543 72.7187 22.2204 66.9046 22.2204 66.9046L34.021 77.2412C34.021 77.2412 29.6356 80.147 26.6384 84.2688Z" />
  <path
    d="M8.56501 61.7431L6.13182 48.1089C9.78518 47.5818 16.5035 45.6802 16.5035 45.6802L18.7435 61.207C18.7435 61.207 13.5225 60.5617 8.56501 61.7431Z" />
  <path
    d="M13.4151 25.7073L22.198 14.9988C24.9724 17.4334 30.7832 21.3046 30.7832 21.3046L20.4362 33.0961C20.4362 33.0961 17.5343 28.7081 13.4151 25.7073Z" />
  <path
    d="M83 47.9701C83 66.9326 69.9057 80.0395 50.3096 81.8588C30.7135 83.6782 14.678 67.6671 15.0049 47.9701C15.3846 25.0921 36.5231 12.7198 50.7564 14.105C64.9897 15.4903 83 20.972 83 47.9701ZM22.4521 44.274C18.2655 64.6398 37.3562 75.0137 51.7945 75.0137C66.2329 75.0137 80.6712 57.3151 75.5479 39.1507C70.4247 20.9863 61.1096 21.9178 50.7564 21.4521C40.4032 20.9863 26.6386 23.9081 22.4521 44.274Z" />
  <path
    d="M57 47.4471C57 51.2896 55.2609 53.7349 51.087 54.7829C46.913 55.8309 41 53.0363 41 47.4471C41 42.8168 43.087 39.7619 47.9565 39.0632C52.8261 38.3646 57 43.6045 57 47.4471Z" />
</svg>