<svg viewBox="0 0 96 96" fill="currentColor" xmlns="http://www.w3.org/2000/svg">
<path d="M12 27C12 24.7909 13.7909 23 16 23H20V31H30V23H80C82.2091 23 84 24.7909 84 27C84 29.2091 82.2091 31 80 31H30H20H16C13.7909 31 12 29.2091 12 27Z" />
<path d="M33 27C33 31.4183 29.4183 35 25 35C20.5817 35 17 31.4183 17 27C17 22.5817 20.5817 19 25 19C29.4183 19 33 22.5817 33 27ZM22.1689 27C22.1689 28.5636 23.4364 29.8311 25 29.8311C26.5636 29.8311 27.8311 28.5636 27.8311 27C27.8311 25.4364 26.5636 24.1689 25 24.1689C23.4364 24.1689 22.1689 25.4364 22.1689 27Z" />
<path d="M12 48C12 45.7909 13.7676 44 15.9767 44C28.384 44 65.5835 44 66 44C66.5 44 66 52 66 52H77C77 52 76.5 44 77 44C77.216 44 78.5519 44 79.9997 44C82.2088 44 84 45.7909 84 48C84 50.2091 82.2091 52 80 52H77H66H16C13.7909 52 12 50.2091 12 48Z" />
<path d="M56 69C56 73.4183 52.4183 77 48 77C43.5817 77 40 73.4183 40 69C40 64.5817 43.5817 61 48 61C52.4183 61 56 64.5817 56 69ZM45.1688 69C45.1688 70.5636 46.4364 71.8312 48 71.8312C49.5636 71.8312 50.8312 70.5636 50.8312 69C50.8312 67.4364 49.5636 66.1688 48 66.1688C46.4364 66.1688 45.1688 67.4364 45.1688 69Z" />
<path d="M12 69C12 66.7909 13.7819 65 15.991 65C24.2772 65 42.6132 65 43 65C43.5 65 43 73 43 73H54C54 73 53.5 65 54 65C54.3847 65 71.9363 65 80.0109 65C82.2201 65 84 66.7909 84 69C84 71.2091 82.2091 73 80 73H54H43H16C13.7909 73 12 71.2091 12 69Z" />
<path d="M79 48C79 52.4183 75.4183 56 71 56C66.5817 56 63 52.4183 63 48C63 43.5817 66.5817 40 71 40C75.4183 40 79 43.5817 79 48ZM68.1688 48C68.1688 49.5636 69.4364 50.8312 71 50.8312C72.5636 50.8312 73.8312 49.5636 73.8312 48C73.8312 46.4364 72.5636 45.1688 71 45.1688C69.4364 45.1688 68.1688 46.4364 68.1688 48Z" />
</svg>
