<svg viewBox="0 0 96 96" fill="currentColor" xmlns="http://www.w3.org/2000/svg">
  <path
    d="M26.4043 35.582L25.877 37.6914C22.4668 36.2852 19.8125 35.582 17.9141 35.582C16.2266 35.582 15.0312 35.8457 14.3281 36.373C13.6602 36.8652 13.3262 37.9375 13.3262 39.5898C13.3262 40.9258 13.8008 42.0332 14.75 42.9121C15.7344 43.791 16.9121 44.4941 18.2832 45.0215C19.6543 45.5137 21.0254 46.0586 22.3965 46.6562C23.8027 47.2188 24.9805 48.0625 25.9297 49.1875C26.9141 50.3125 27.4062 51.7012 27.4062 53.3535C27.4062 55.6035 26.5801 57.5723 24.9277 59.2598C23.2754 60.9473 21.1309 61.8086 18.4941 61.8438C16.5605 61.8438 14.75 61.4395 13.0625 60.6309C11.375 59.8223 10.0391 58.8027 9.05469 57.5723L10.584 55.9902C11.0059 56.166 11.6211 56.4473 12.4297 56.834C13.2734 57.2207 13.8711 57.4844 14.2227 57.625C14.5742 57.7305 15.084 57.8535 15.752 57.9941C16.4551 58.1348 17.1934 58.2051 17.9668 58.2051C19.6191 58.2051 20.9727 57.8359 22.0273 57.0977C23.082 56.3594 23.6094 55.3223 23.6094 53.9863C23.6094 53.1074 23.3633 52.3691 22.8711 51.7715C22.3789 51.1387 21.7285 50.6289 20.9199 50.2422C20.1113 49.8555 19.2148 49.4863 18.2305 49.1348C17.2812 48.7832 16.3145 48.3965 15.3301 47.9746C14.3809 47.5176 13.502 46.9902 12.6934 46.3926C11.8848 45.7598 11.2344 44.916 10.7422 43.8613C10.25 42.8066 10.0039 41.5586 10.0039 40.1172C10.0039 38.0078 10.5664 36.25 11.6914 34.8438C12.8516 33.4023 14.4688 32.6816 16.543 32.6816C17.3516 32.6816 18.2656 32.8047 19.2852 33.0508C20.3047 33.2969 21.1133 33.5254 21.7109 33.7363C22.3086 33.9473 23.1875 34.2988 24.3477 34.791C25.543 35.248 26.2285 35.5117 26.4043 35.582ZM31.7832 33.8945L34.209 34.4219C34.4902 37.3047 34.7363 41.8398 34.9473 48.0273C35.1582 54.1797 35.2988 57.9941 35.3691 59.4707C35.0527 60.5605 34.4375 61.1055 33.5234 61.1055C32.8906 61.1055 32.2754 60.8594 31.6777 60.3672C31.1152 59.8398 30.7637 59.207 30.623 58.4688C30.6934 57.0273 30.834 53.2832 31.0449 47.2363C31.2559 41.1543 31.502 36.707 31.7832 33.8945ZM32.5215 24.4551C33.4707 24.4551 34.2617 24.877 34.8945 25.7207C35.5273 26.5293 35.8438 27.4609 35.8438 28.5156C35.8438 29.2891 35.6504 29.9219 35.2637 30.4141C34.9121 30.8711 34.4199 31.0996 33.7871 31.0996C32.8027 31.0996 32.0293 30.6953 31.4668 29.8867C30.9043 29.0781 30.623 28.1289 30.623 27.0391C30.623 26.2656 30.7812 25.6504 31.0977 25.1934C31.4492 24.7012 31.9238 24.4551 32.5215 24.4551ZM43.7539 39.9062L43.9648 60.7891C43.4375 61.0703 42.8047 61.2109 42.0664 61.2109C41.5039 61.2109 40.8711 61.123 40.168 60.9473C40.2734 58.7324 40.3438 54.373 40.3789 47.8691C40.4141 41.3652 40.5547 36.5488 40.8008 33.4199L43.1738 33.9473L43.332 36.9004C45.1953 34.9316 47.3398 33.9473 49.7656 33.9473C50.9961 33.9473 51.9805 34.0352 52.7188 34.2109C53.457 34.3867 54.1602 34.8262 54.8281 35.5293C55.5312 36.1973 56.0586 37.0938 56.4102 38.2188C56.7617 39.3438 57.0781 40.9609 57.3594 43.0703C57.6406 45.1445 57.834 47.5879 57.9395 50.4004C58.0801 53.1777 58.168 56.6934 58.2031 60.9473C57.9922 61.0176 57.5879 61.0527 56.9902 61.0527C55.7246 61.0527 54.7402 60.8945 54.0371 60.5781C53.8965 60.0156 53.8262 59.084 53.8262 57.7832C53.8262 57.1152 53.8438 55.8672 53.8789 54.0391C53.9492 52.1758 53.9844 50.7344 53.9844 49.7148C53.9844 48.0273 53.9141 46.5508 53.7734 45.2852C53.668 44.0195 53.4395 42.7715 53.0879 41.541C52.7715 40.3105 52.2617 39.3613 51.5586 38.6934C50.8906 38.0254 50.0469 37.6914 49.0273 37.6914C47.8672 37.6914 46.9531 37.7793 46.2852 37.9551C45.6523 38.1309 45.1953 38.3418 44.9141 38.5879C44.668 38.834 44.2812 39.2734 43.7539 39.9062ZM73.5125 61.48C70.3765 61.48 67.8325 60.376 65.8805 58.168C63.9285 55.928 62.9525 52.616 62.9525 48.232C62.9525 43.88 63.9125 40.552 65.8325 38.248C67.7525 35.944 70.4405 34.792 73.8965 34.792C75.7845 34.792 77.3525 35.128 78.6005 35.8C79.8805 36.44 80.9365 37.416 81.7685 38.728H82.0565C82.2165 38.184 82.4245 37.592 82.6805 36.952C82.9365 36.312 83.2405 35.752 83.5925 35.272H86.9045C86.6805 35.976 86.4725 36.904 86.2805 38.056C86.0885 39.208 85.9445 40.424 85.8485 41.704C85.7525 42.984 85.7045 44.2 85.7045 45.352V55.336C85.7045 56.328 85.8965 57.032 86.2805 57.448C86.6645 57.832 87.1285 58.024 87.6725 58.024C87.9285 58.024 88.2005 57.992 88.4885 57.928C88.7765 57.864 88.9845 57.816 89.1125 57.784V60.856C88.8885 60.984 88.5205 61.112 88.0085 61.24C87.4965 61.4 86.9685 61.48 86.4245 61.48C85.2405 61.48 84.2645 61.192 83.4965 60.616C82.7605 60.04 82.2165 59.016 81.8645 57.544H81.5285C80.7925 58.632 79.8165 59.56 78.6005 60.328C77.3845 61.096 75.6885 61.48 73.5125 61.48ZM74.2325 57.976C76.8885 57.976 78.7605 57.224 79.8485 55.72C80.9685 54.184 81.5285 51.768 81.5285 48.472V48.184C81.5285 44.984 81.0005 42.552 79.9445 40.888C78.9205 39.192 77.0005 38.344 74.1845 38.344C71.8485 38.344 70.1205 39.192 69.0005 40.888C67.8805 42.584 67.3205 45.048 67.3205 48.28C67.3205 51.48 67.8645 53.896 68.9525 55.528C70.0725 57.16 71.8325 57.976 74.2325 57.976Z" />
</svg>