<svg viewBox="0 0 96 96" fill="currentColor" xmlns="http://www.w3.org/2000/svg">
<path d="M27 33.5L38.5 23L49 33.4231L46.5 33.9231L39 25.5L29.5 34L27 33.5Z" />
<path d="M8.03906 46.0313L7.52344 43.9219L23.1328 42.8438C23.9141 42.875 24.5703 43.1719 25.1016 43.7344C25.6641 44.2656 25.9453 44.8438 25.9453 45.4688C25.9453 45.875 25.7891 46.2344 25.4766 46.5469C25.1641 46.8594 24.6953 47.0469 24.0703 47.1094L8.03906 46.0313Z" />
<path d="M47.6953 55.4531L48.1641 57.5156C46.7891 58.0156 44.7422 58.5781 42.0234 59.2031C39.3359 59.7969 37.3359 60.0938 36.0234 60.0938C34.6797 60.0938 33.5078 59.6563 32.5078 58.7813C31.5078 57.875 30.7578 56.7344 30.2578 55.3594C29.7578 53.9531 29.3828 52.5781 29.1328 51.2344C28.9141 49.8594 28.8047 48.5156 28.8047 47.2031C28.8047 39.3906 32.3359 35.4844 39.3984 35.4844C41.0859 35.4844 42.5703 36.0313 43.8516 37.125C45.1328 38.1875 45.7734 39.5781 45.7734 41.2969C45.7734 42.2344 45.5078 43.0625 44.9766 43.7813C44.4766 44.5 43.8516 45.0781 43.1016 45.5156C42.3828 45.9219 41.4453 46.2969 40.2891 46.6406C39.1641 46.9844 38.1641 47.2344 37.2891 47.3906C36.4141 47.5469 35.3672 47.7188 34.1484 47.9063C32.9297 48.0938 32.0859 48.2344 31.6172 48.3281C31.6484 49.2344 31.6953 50.0313 31.7578 50.7188C31.8516 51.4063 32.0078 52.1563 32.2266 52.9688C32.4766 53.75 32.7891 54.4063 33.1641 54.9375C33.5703 55.4375 34.1172 55.8594 34.8047 56.2031C35.4922 56.5469 36.3047 56.7188 37.2422 56.7188C38.3672 56.7188 39.7422 56.625 41.3672 56.4375C42.9922 56.2188 44.4297 56 45.6797 55.7813C46.9609 55.5625 47.6328 55.4531 47.6953 55.4531ZM31.8047 45.4219C36.0547 44.2031 39.5391 42.9219 42.2578 41.5781C42.0391 40.5469 41.7422 39.7969 41.3672 39.3281C40.9922 38.8594 40.4297 38.625 39.6797 38.625C37.7734 38.625 36.0391 39.2813 34.4766 40.5938C32.9453 41.9063 32.0547 43.5156 31.8047 45.4219Z" />
<path d="M48.5391 38.4844L48.1172 36.4219C52.3047 36.1719 58.8984 35.8281 67.8984 35.3906C68.6484 35.4219 69.2891 35.7031 69.8203 36.2344C70.3516 36.7656 70.6172 37.3281 70.6172 37.9219C70.6172 38.8594 69.9922 39.3906 68.7422 39.5156L59.9766 39.0938C60.1328 41.4375 60.2109 44.8594 60.2109 49.3594C60.2422 53.8281 60.3047 57.0938 60.3984 59.1563C60.1172 60.0625 59.5703 60.5156 58.7578 60.5156C58.2266 60.5156 57.7109 60.2969 57.2109 59.8594C56.7109 59.4219 56.3984 58.8906 56.2734 58.2656C56.7109 50.5781 57.1641 44.125 57.6328 38.9063L48.5391 38.4844Z" />
<path d="M72.6797 36.2344L74.7891 36.7031C74.8516 37.7031 74.9453 38.875 75.0703 40.2188C75.2266 41.5625 75.3984 43.0938 75.5859 44.8125C76.8359 44.4375 78.0234 44.25 79.1484 44.25C80.4922 44.25 81.7422 44.5156 82.8984 45.0469C84.0547 45.5469 85.0391 46.2188 85.8516 47.0625C86.6641 47.9063 87.3047 48.875 87.7734 49.9688C88.2422 51.0313 88.4766 52.125 88.4766 53.25C88.4766 54.3438 88.2422 55.3438 87.7734 56.25C87.3047 57.1563 86.6797 57.9375 85.8984 58.5938C85.1172 59.2188 84.2109 59.7031 83.1797 60.0469C82.1484 60.4219 81.0547 60.6094 79.8984 60.6094C79.6797 60.6094 79.1953 60.5938 78.4453 60.5625C77.6953 60.5313 76.8984 60.4531 76.0547 60.3281C75.2422 60.2344 74.5078 60.0938 73.8516 59.9063C73.1953 59.7188 72.8516 59.4531 72.8203 59.1094C72.8203 58.5781 72.8047 57.8594 72.7734 56.9531C72.7734 56.0156 72.7578 54.9844 72.7266 53.8594C72.7266 52.7344 72.7109 51.5625 72.6797 50.3438C72.6484 49.0938 72.6172 47.8906 72.5859 46.7344C72.5859 45.5781 72.5703 44.5156 72.5391 43.5469C72.5391 42.5781 72.5391 41.8125 72.5391 41.25C72.5391 39.5 72.5859 37.8281 72.6797 36.2344ZM76.0078 47.7188L75.5859 57.1406C76.8359 57.5781 78.0234 57.7969 79.1484 57.7969C80.0234 57.7969 80.8203 57.6563 81.5391 57.375C82.2891 57.0625 82.9141 56.6719 83.4141 56.2031C83.9141 55.7031 84.3047 55.1406 84.5859 54.5156C84.8672 53.8906 85.0078 53.2344 85.0078 52.5469C85.0078 51.8594 84.8672 51.2188 84.5859 50.625C84.3047 50 83.8828 49.4531 83.3203 48.9844C82.7578 48.5156 82.0703 48.1563 81.2578 47.9063C80.4453 47.625 79.5234 47.4844 78.4922 47.4844C78.1484 47.4844 77.7734 47.5156 77.3672 47.5781C76.9609 47.6094 76.5078 47.6563 76.0078 47.7188Z" />
</svg>
