<svg viewBox="0 0 96 96" fill="#DDDDDD" xmlns="http://www.w3.org/2000/svg">
  <path
    d="M73.5616 31.7966C73.5616 64.4586 93.0166 79.9156 92.6378 82.3112C92.259 84.7067 86.0135 85.2099 81.4 80.2205C61.339 54.768 68.2557 13.5175 46.3834 12.3211C24.5112 11.1246 37.5165 56.398 13.2398 82.8008C10.5276 85.8229 2.78144 86.9391 4.59224 84.137C4.59224 84.137 22.4383 57.5611 22.4383 31.7966C22.4383 19.0158 27.1108 4.20626 46.3834 5.42348C66.8326 6.71499 73.5616 19.2186 73.5616 31.7966Z" />
  <path d="M11.7094 76.4502L85.2503 73.7625L89.6387 79.5301L11.3831 80.4176L11.7094 76.4502Z" />
  <path
    d="M55.3033 79.435C55.3033 83.4685 53.4574 86.7383 48 86.7383C43.9665 86.7383 40.6967 82.7233 40.6967 79.435C40.6967 75.4014 43.9665 77.7952 48 77.7952C52.0335 77.7952 55.3033 75.4014 55.3033 79.435Z" />
</svg>