<svg version="1" xmlns="http://www.w3.org/2000/svg" width="933.333" height="933.333" viewBox="0 0 700.000000 700.000000"><path d="M333.8 40.5c-.2.1-4.1.5-8.7.9-27.8 2.1-58.2 10.7-77.4 21.8-2.6 1.6-5 2.8-5.3 2.8-.9 0-12.8 8.2-19.9 13.8-15.1 11.8-32.9 32.3-43.7 50.2-6.2 10.3-12.8 23.1-12.8 24.7 0 .7-.4 1.3-1 1.3-.5 0-1 .6-1 1.4 0 .7-1.4 4.3-3 8-5.4 11.9-15.9 46-18.3 59.6-.3 1.4-1.4 7-2.6 12.5-1.1 5.5-2.9 16.3-4 24-2 13.6-2.4 17.4-3.7 32-.3 3.8-.7 8.6-.9 10.5-2.3 21-2.3 85.8-.1 100 .3 1.4.7 5.2 1 8.5 1.5 15 6 40.4 9 51 .2.5.6 2.3 1 4 2.2 8.5 8.6 27.5 11.5 34 2.8 6.2 11.4 23.6 13.4 27 3 5.2 9.9 15.9 10.6 16.5.3.3 2.8 3.4 5.6 6.9 23.7 30.8 61.5 54.9 102.8 65.7 16.6 4.3 36.5 7.4 57.3 8.9 7.9.6 43.4.6 49.9 0 7.6-.7 19.7-2.4 29.8-4 10.7-1.8 32.8-7.6 38.4-10.1 1.7-.8 3.5-1.4 4-1.4 4.1 0 34.4-14.5 48.7-23.4l8.9-5.5 6 4.7c3.3 2.6 7.1 5.6 8.6 6.7 1.4 1.1 11.1 8.7 21.6 16.8l18.9 14.9 3.1-3.8c1.6-2 8.7-11 15.7-19.8l12.7-16.1-3.7-3.2c-2-1.7-8.6-7-14.7-11.7-6-4.7-11.4-8.9-12-9.4-1.4-1.1-15.9-12.5-16.3-12.8-.2-.1 3.4-4.9 8-10.6 18.7-23 29.3-41 40.4-68.6 8.5-20.9 17-52.6 19-70.2.3-2.5.7-5.2.9-6 .2-.8.7-4 1-7 .3-3 .8-7.3 1-9.5 2.3-21.1 2.3-77 0-87.9-.2-1.2-.6-4.8-.9-8.1-.8-9.6-2.8-22.5-5.1-33.5-.3-1.4-.7-3.6-1-4.9-1.2-6.3-6-23.4-9.2-32.9-4.7-14.1-9.1-24.3-16.5-38.2-5.2-9.9-18.7-31-22.2-34.5-.6-.7-3.1-3.7-5.6-6.6-14.1-16.9-39.6-37.9-59-48.6-30-16.7-57.9-26.8-95.5-34.6-23.4-4.9-34.6-6.1-60.2-6.3-13.3-.1-24.4 0-24.5.1zM380 91.9c2.5.5 6.9 1.2 9.9 1.5 3 .4 8.6 1.3 12.5 2.1 3.9.8 8.2 1.6 9.6 1.9 10.2 1.8 30.7 7.8 44.5 13.1 40.8 15.7 70.5 38.8 91.9 71.8 5.8 8.8 16.6 30.3 16.6 32.9 0 .8.4 1.8.9 2.3 2.1 2.2 11.1 34.3 12.6 45 .3 2.2 1 6.2 1.5 9 .5 2.7 1.2 7.7 1.5 11 .4 3.3.9 7.6 1.1 9.5 2.2 20 2.2 64.7-.1 81-.3 1.9-.7 5.7-1 8.5-.9 8.2-3.4 22.4-5.6 31.5-1.2 4.7-2.2 9.2-2.4 10-1 4.6-7.3 22.8-10.8 31-9.5 22.3-21.7 41.8-36 57.5-3.5 3.8-4.8 4.7-5.8 3.8-.8-.6-15.1-11.8-31.9-24.8-16.8-13.1-33.7-26.3-37.6-29.4-3.9-3.1-8.6-6.8-10.5-8.3-9-7-52.6-41-53.9-42.1-.8-.6-5.6-4.3-10.5-8.1-5-3.9-10.6-8.3-12.5-9.8-1.9-1.6-3.9-3.2-4.5-3.6-1.1-.8-20.6-16-59-46l-22.9-17.9-14.6 10.5c-8 5.8-29.3 21.3-47.4 34.4-18.1 13.2-33 23.7-33.2 23.5-2.2-2.2-2.2-62.9.1-87.7.2-2.5.7-7.4 1-11 1-11 1.6-16.4 2-18.5.2-1.1.7-4.3 1-7 .3-2.8 1.5-9.7 2.5-15.5 1.1-5.8 2.2-12 2.5-13.8.3-1.7 2.1-9.2 4-16.5 11-42.5 27-73.6 49.2-95.3 12.8-12.6 31.6-24.3 44.8-27.9.6-.1 3.2-1 5.9-1.9 8.4-2.9 19.2-4.9 34.4-6.5 9.9-1 45-1.1 50.2-.2zm-88 309.5c9.7 7.6 9.3 7.3 38.5 30.1 13.8 10.7 28.4 22.1 32.5 25.3 10.6 8.2 76.4 59.7 82.6 64.6 2.8 2.3 10.7 8.4 17.4 13.6 6.8 5.2 13.4 10.5 14.7 11.6l2.5 2.1-8.9 4.5c-20.2 10.4-49.8 19-72.3 21.3-3.6.3-8.3.8-10.5 1-5.4.6-35.6.6-42.5 0-24.2-2-39.5-4.8-55.9-10.2-48.7-16.1-79-48.7-96.1-103.3-2.2-7.1-2.9-10.5-2.2-11.2.6-.6 19.9-14.7 42.9-31.3l41.8-30.3 4 3.1c2.2 1.8 7.4 5.8 11.5 9.1zM60.7 191.3c-23.5 6.1-38.1 30.4-33.3 55.5 3.2 17 16.3 29.9 33.6 33.1 7 1.2 20.1.7 26.2-1.2 19.7-6.1 31-24.6 30.3-49.3-.3-8.6-2.1-14.3-6.7-21.1-9.8-14.5-31.5-21.9-50.1-17zm16.6 35.8c3.6 1 3.7 1.1 3.7 5.9 0 8.9-2.6 11.6-10.3 11.2-6.1-.4-7.7-1.7-7.7-6.3 0-6.8 3.7-11.6 9-11.8.8-.1 3.2.4 5.3 1zM60.5 392.5c-14.5 3.6-26.9 15-32 29.5-8.3 23.5 2.8 48.5 25.5 57.4 6.1 2.4 7.4 2.7 16.2 3.3 13.4 1 24.4-3.1 33.3-12.2 17.8-18.2 17.1-49.7-1.5-66.8-5-4.7-13.1-9.5-17.2-10.2-1.7-.3-3.6-.9-4.1-1.2-1.9-1.2-15.3-1.1-20.2.2zm17.1 38.8c2.2 2.6 2.5 3.8 2.1 7.5-.6 5.3-2.5 7.5-6.9 7.7-10 .5-14.1-9.4-7-16.5 3.6-3.6 8.1-3.1 11.8 1.3z"/></svg>