<svg version="1" xmlns="http://www.w3.org/2000/svg" width="933.333" height="933.333" viewBox="0 0 700.000000 700.000000"><path d="M356.5 66.1c-32.6 4.5-63.8 15.6-90.2 32.1-20.5 12.7-45.2 34.3-61.3 53.5-34.3 41.1-57.3 93.5-65.9 150.8-4.2 27.1-4.2 67.9 0 95 5.2 34.6 14.1 63.1 29.4 94.1 26.7 54.1 67.8 96.3 117.7 120.9 32 15.7 60.9 22.5 96.8 22.5 48.8 0 92.7-14.2 133.8-43.4l9.4-6.6 3.1 2.6c1.8 1.5 12.1 10.6 23 20.3 11 9.7 21 18.2 22.5 19 1.4.7 4.6 1.4 7.1 1.4 11.4.1 19.7-9.7 17.7-20.8-.9-4.8-4.6-8.6-27.3-28.7-10.6-9.4-19.3-17.2-19.3-17.5 0-.2 4.2-5.2 9.3-11.2 39.1-45.9 62-98.8 70.3-162.6 1.2-9.1 1.7-20.3 1.7-37.5 0-26.9-1.3-40-6.3-65-21.2-105.7-96.1-189.7-190.4-213.6-18.2-4.6-34.1-6.4-55.6-6.3-10.7.1-22.2.5-25.5 1zm53.4 35.5c55.6 8.1 105.1 39.8 140.8 90 24.7 34.7 40.9 77.1 46.9 123.1 2.4 17.5 2.4 53.1 0 70.8-7.1 54.7-28.9 104.4-62.4 142.4-4.6 5.3-8.8 9.5-9.3 9.3-.5-.1-53-46.2-116.7-102.5-63.6-56.2-120.1-106.1-125.5-110.9-7.4-6.5-11-8.9-14.3-9.7-9.6-2.4-18.1 2.9-21.3 13.2-1 3.4-11.4 40.1-23.2 81.5l-21.3 75.3-4.2-8.3c-12.8-25.5-22-56.2-26.6-88.8-2-14.7-1.7-62.2.5-77.5 16.3-110.3 89.3-193.4 182.5-207.9 12.3-2 41-2 54.1 0zM358 436.2c42.6 37.6 91.7 80.9 109 96.2 17.3 15.3 31.6 28.1 31.8 28.5.3.8-15.3 11.2-23.8 15.9-17.9 10-44 18.6-65.7 21.7-16.7 2.4-46.1 1.7-61.5-1.4-29.1-5.9-57.4-19.2-82.7-38.9-9-7-26.3-23.8-32.4-31.3l-3.6-4.5 22.7-80.2 22.7-80.1 3 2.8c1.7 1.6 37.9 33.6 80.5 71.3zM65.8 208.9c-21 6.9-33.2 26.4-30.6 48.9 1.6 14 11.6 27.6 25.3 34.3 6.7 3.3 7.4 3.4 18.5 3.4s11.7-.1 19.1-3.6c25.4-12.1 33.5-42.2 17.8-65.8-4.4-6.7-10.7-11.8-19.5-15.8-7.9-3.6-22.1-4.2-30.6-1.4zm20.3 36c2.1 2.2 2.9 3.9 2.9 6.6 0 5.2-4.4 9.5-9.7 9.5-4.8 0-7.8-2.1-9.3-6.4-3.2-9.8 8.7-17 16.1-9.7zM68.3 432.5C40.5 440 26.8 470 39.4 495.6c8.5 17 27.3 27 46.2 24.3 30.3-4.3 47.2-37.1 33.3-64.7-3.3-6.7-12.3-15.8-18.7-19.1-9.6-4.9-21.8-6.3-31.9-3.6zm17.8 36.4c3.8 3.8 3.9 8.7.4 12.9-3.2 3.8-6.5 4.6-11 2.8-6.7-2.8-7.9-11.4-2.3-16.1 4.2-3.5 9.1-3.4 12.9.4z"/></svg>