<svg version="1" xmlns="http://www.w3.org/2000/svg" width="933.333" height="933.333" viewBox="0 0 700.000000 700.000000"><path d="M365.9 65.4c-.2.2-3.3.6-6.9 1-64.8 6.2-128.5 46.3-169.9 107.1-12.2 17.9-25.2 42.4-30.7 58-.9 2.7-2.1 5.4-2.5 6-.3.5-2.1 5.7-3.9 11.5-1.7 5.8-3.7 12.1-4.3 14-.6 1.9-1.2 3.9-1.3 4.5-.1.5-1.2 5.2-2.3 10.3-1.2 5.1-2.4 11-2.7 13-.3 2-.9 6.2-1.4 9.2-.5 3-1.2 7.7-1.5 10.5-.4 2.7-.9 6.1-1.1 7.5-.9 4.3-1.2 52.2-.3 59 .4 3.6 1 9 1.3 12 2.5 23.4 8.7 49.1 17.9 74 4.8 13.1 6 15.8 12.8 29.3 35.3 70.2 92.7 118.6 161.3 136.2 7.2 1.8 15.6 3.6 18.6 3.9 3 .4 8.2 1 11.5 1.5 10.2 1.6 37.8 1 52.4-1 37.8-5.3 73.4-19.6 104.5-42.2l9-6.5 9 8.1c5 4.5 10.7 9.5 12.6 11.3 26.3 23.5 27.5 24.4 34.2 24.4 2.7 0 6.1-.6 7.6-1.4 8.5-4.4 12-15.2 7.6-23.7-.7-1.5-6.4-7.1-12.6-12.5-6.2-5.5-11.8-10.3-12.4-10.9-4.7-4.3-16.5-14.8-18.4-16.3-2.3-1.9-2.3-1.9-.4-3.8 21-21.5 42.6-54.6 55.7-85.5 9.6-22.6 19-55.4 21.2-74.4.3-2.2.7-5.1 1-6.5.5-3.1 1.3-10.2 2.1-20 .7-9.2.7-37.1 0-46-.7-7.9-1.7-18-2.1-20-.1-.8-.6-4-1-7-.6-4.4-3.5-18.5-6-29-8.2-34.4-29.1-78.9-48.9-104.2-1.2-1.4-3.2-4.1-4.6-5.9-17.2-22.8-44.6-47.3-70.3-62.8-36.1-21.7-75.2-32.7-117.3-32.9-9.5-.1-17.3 0-17.5.2zm39.1 34.9c1.4.3 4.8.9 7.5 1.3 2.8.4 5.2.8 5.5.9.3.1 2.5.5 5 .9 2.5.5 9 2.2 14.5 3.8 48.2 14.3 92.8 49.7 122 96.8 6.6 10.7 17.8 32.7 20.5 40.4 1 2.8 3 8.2 4.5 12.1 9.7 26.1 15.6 61.6 15.5 94-.1 60.2-18.5 117.3-52.7 163.2-7 9.5-20 24.3-21.1 24.3-.7 0-3-2-14.2-12-3.6-3.2-7.6-6.8-9-8-6.4-5.5-8.8-7.6-13.5-11.8-10.3-9.2-12.4-11.1-28.5-25.2-9.1-7.9-16.7-14.7-17-15-.3-.3-4.3-3.9-9-8s-8.7-7.7-9-8c-.3-.3-7.9-7-17-15-14.5-12.7-24-21.1-51-45.1-3.6-3.2-7.5-6.6-8.8-7.7-1.2-1.1-5.5-4.8-9.4-8.3-4-3.5-11.7-10.4-17.2-15.3-5.6-4.9-13.4-11.9-17.5-15.5-4-3.6-7.7-6.8-8.1-7.1-.4-.3-4.2-3.7-8.5-7.5-13.8-12.5-17-14.5-22.9-14.5-2.9 0-5.6.3-6 .7-.4.5-1.1.8-1.4.9-4.8.6-8.5 6.8-12.5 21.4-2 6.9-6.5 22.8-10.1 35.5-3.6 12.6-9.6 34-13.4 47.5-3.9 13.5-9.6 33.7-12.8 44.9l-5.8 20.3-5.7-11.8c-3.2-6.6-7.9-17.8-10.5-24.9-4.7-13-11.6-38.9-12.8-48.1-1-6.8-1.6-11.5-2.2-14.4-2.4-13.8-2.4-57.1 0-72 .3-1.4.7-4.8 1.1-7.5.3-2.8 1-6.8 1.5-9s1.1-5.6 1.4-7.6c.3-2 1-4.7 1.5-6 .5-1.3.9-2.6.9-2.9.1-2.2 1.8-9.2 2.9-12.5.8-2.2 1.6-4.9 1.9-6 .2-1.1 2.2-6.7 4.4-12.5s4.2-10.9 4.3-11.5c.1-.5 3.6-7.7 7.7-16 30.8-61.3 81.4-104.1 139.9-118.1 11.1-2.6 13.2-3 22.6-4 3.3-.3 6.2-.8 6.4-1 .5-.5 33.1.3 36.1.9zM280 366.6c3.3 3 14.7 13 31 27.4 4 3.6 7.8 7 8.4 7.5.6.6 6.7 6 13.6 12 6.9 6 13 11.4 13.6 12 1.1 1 12.1 10.8 16 14.2 12.1 10.5 15 13.1 16.8 14.8 1.2 1.1 7.5 6.7 14.1 12.5 12.6 11 15.2 13.3 25 22.1 3.4 3 9.2 8.1 13 11.4 3.8 3.3 7.6 6.7 8.5 7.5 1.4 1.3 8 7.2 21.4 19 2.2 1.9 6.3 5.6 9.1 8.1 2.7 2.5 10.5 9.3 17.2 15.2l12.2 10.6-3.7 2.9c-5.1 4-20.2 13-28.7 17.1-3.8 1.8-8.1 3.9-9.5 4.6-9.4 4.9-37.9 12.4-54 14.2-8.5 1-33.8 1-42 0-29-3.4-57.9-14.2-83.1-31-15.7-10.5-26.9-20.3-42.5-37.1-6.7-7.2-7.4-8.4-6.9-11.1.3-1.7 3.5-13.4 7.1-26 3.6-12.7 7.2-25.3 7.9-28 .7-2.8 5.5-19.4 10.5-37s9.7-34.3 10.5-37c1.6-6 7.4-26.3 8.1-28.8.6-2 1.4-1.6 6.4 2.9zM67.4 208.9c-32.9 9.2-43.4 50.5-18.9 74.3 14.4 14 36.9 16.6 53.6 6.3 26.5-16.4 28.8-53.5 4.6-72.7-11.3-8.8-25.5-11.7-39.3-7.9zm16.3 33.5c4.5 1.5 6.9 8.2 4.8 13.3-1.7 4-7.2 6.8-11.6 5.8-3.5-.8-7.9-5.8-7.9-9 0-8 6.9-12.8 14.7-10.1zM70 432.4c-19.9 4.1-34.5 21.9-34.9 42.6-.4 19.7 11.8 36.5 31.1 43.1 9.2 3.1 21.7 2.4 31-1.9 19.4-8.8 30-29.9 25.2-50.3-5.5-23.6-28.6-38.4-52.4-33.5zm13.6 34.4c8.6 3.6 7.2 16.3-2 18.6-6.3 1.6-12.6-3.2-12.6-9.5 0-3.5 3-8 6.2-9.4 3.6-1.5 4.1-1.4 8.4.3z"/></svg>