<svg viewBox="0 0 96 96" fill="currentColor" xmlns="http://www.w3.org/2000/svg">
  <path d="M4.23478 11.5L73.3826 10L74 22L3 20.5L4.23478 11.5Z" />
  <path d="M2 41.7647L74 40L73.3846 55L2.61538 54.1176L2 41.7647Z" />
  <path d="M1.85 71.8824L74 71L73.3833 86L0 85.1176L1.85 71.8824Z" />
  <path
    d="M94 17.3592C94 21.9759 90.1249 25.7185 86.8957 24.8825C83.6665 24.0466 80.4373 21.5389 81.0831 16.5233C81.7289 11.5078 83.6665 9 86.8957 9C90.1249 9 94 11.5078 94 17.3592Z" />
  <path
    d="M94.9105 46.4C95.606 50.4 92.1284 56 88.6508 56C85.1731 56 81 52.8 81 48C81 43.2 84.4776 40 87.9552 40C91.4329 40 94.215 42.4 94.9105 46.4Z" />
  <path
    d="M94.9067 77.4C95.5987 82.2 92.3573 87 87.9865 87C84.1646 87 81.6766 84.0343 81.0663 79.8C80.4559 75.5657 84.1646 71 87.9865 71C90.7546 71 94.2147 72.6 94.9067 77.4Z" />
</svg>