<svg viewBox="0 0 96 100" fill="#DDDDDD" xmlns="http://www.w3.org/2000/svg">
  <path
    d="M0.61324 49.4769L0 46.9815L18.5645 45.7061C19.4936 45.7431 20.2741 46.0943 20.9059 46.7597C21.5749 47.3882 21.9094 48.0721 21.9094 48.8115C21.9094 49.2921 21.7236 49.7172 21.3519 50.0869C20.9803 50.4566 20.4228 50.6784 19.6794 50.7523L0.61324 49.4769Z" />
  <path
    d="M47.777 60.6229L48.3345 63.0628C46.6992 63.6543 44.2648 64.3198 41.0314 65.0592C37.8351 65.7616 35.4564 66.1128 33.8955 66.1128C32.2973 66.1128 30.9036 65.5952 29.7143 64.5601C28.525 63.488 27.633 62.1386 27.0383 60.512C26.4437 58.8484 25.9977 57.2218 25.7003 55.6322C25.4402 54.0055 25.3101 52.4159 25.3101 50.8632C25.3101 41.6211 29.5099 37 37.9094 37C39.9164 37 41.6818 37.647 43.2056 38.9409C44.7294 40.1978 45.4913 41.8429 45.4913 43.8762C45.4913 44.9852 45.1754 45.9649 44.5436 46.8152C43.9489 47.6654 43.2056 48.3494 42.3136 48.8669C41.4588 49.3475 40.3438 49.7911 38.9686 50.1978C37.6307 50.6044 36.4413 50.9002 35.4007 51.085C34.36 51.2699 33.115 51.4732 31.6655 51.695C30.216 51.9168 29.2125 52.0832 28.6551 52.1941C28.6922 53.2662 28.748 54.2089 28.8223 55.0222C28.9338 55.8355 29.1196 56.7227 29.3798 57.6839C29.6771 58.6081 30.0488 59.3845 30.4948 60.0129C30.9779 60.6044 31.6283 61.1035 32.446 61.5102C33.2636 61.9168 34.23 62.1201 35.3449 62.1201C36.6829 62.1201 38.3182 62.0092 40.2509 61.7874C42.1835 61.5287 43.8931 61.2699 45.3798 61.0111C46.9036 60.7523 47.7027 60.6229 47.777 60.6229ZM28.878 48.756C33.9326 47.3142 38.0767 45.7985 41.3101 44.2089C41.0499 42.9889 40.6969 42.1017 40.2509 41.5471C39.8049 40.9926 39.1359 40.7153 38.2439 40.7153C35.9768 40.7153 33.9141 41.4917 32.0557 43.0444C30.2346 44.597 29.1754 46.5009 28.878 48.756Z" />
  <path
    d="M67.2334 37.8872L69.7422 38.4418L71.0244 65.3364C70.6899 66.4455 70.0395 67 69.0732 67C68.4042 67 67.7538 66.7227 67.1219 66.1682C66.4901 65.6506 66.0999 65.0037 65.9512 64.2274C65.9512 64.1165 66.1185 60.9926 66.453 54.8558V54.4122C65.4123 54.3383 63.8699 54.3013 61.8258 54.3013C58.741 54.3013 56.4181 54.2089 54.8571 54.024C55.043 56.1682 55.2845 59.6248 55.5819 64.3937C55.2474 65.5397 54.597 66.1128 53.6307 66.1128C52.9617 66.1128 52.3113 65.854 51.6794 65.3364C51.0848 64.7819 50.7131 64.1165 50.5645 63.3401C50.676 61.4917 50.7317 59.6433 50.7317 57.7948C50.7317 56.6118 50.7131 54.8373 50.676 52.4713C50.6388 50.1054 50.6202 48.3494 50.6202 47.2033C50.6202 43.6543 50.7317 40.6784 50.9547 38.2754L53.4634 38.8854C54.2067 46.9076 54.597 51.0296 54.6341 51.2514C60.9895 51.5841 64.2602 51.7505 64.446 51.7505C65.9698 51.7505 66.7317 51.658 66.7317 51.4732C66.7317 50.7338 66.806 48.3863 66.9547 44.4307C67.1034 40.475 67.1963 38.2939 67.2334 37.8872Z" />
  <path
    d="M92.2091 37.8872L94.7178 38.4418L96 65.3364C95.6655 66.4455 95.0151 67 94.0488 67C93.3798 67 92.7294 66.7227 92.0976 66.1682C91.4657 65.6506 91.0755 65.0037 90.9268 64.2274C90.9268 64.1165 91.0941 60.9926 91.4286 54.8558V54.4122C90.3879 54.3383 88.8455 54.3013 86.8014 54.3013C83.7166 54.3013 81.3937 54.2089 79.8327 54.024C80.0186 56.1682 80.2602 59.6248 80.5575 64.3937C80.223 65.5397 79.5726 66.1128 78.6063 66.1128C77.9373 66.1128 77.2869 65.854 76.6551 65.3364C76.0604 64.7819 75.6887 64.1165 75.5401 63.3401C75.6516 61.4917 75.7073 59.6433 75.7073 57.7948C75.7073 56.6118 75.6887 54.8373 75.6516 52.4713C75.6144 50.1054 75.5958 48.3494 75.5958 47.2033C75.5958 43.6543 75.7073 40.6784 75.9303 38.2754L78.439 38.8854C79.1823 46.9076 79.5726 51.0296 79.6098 51.2514C85.9652 51.5841 89.2358 51.7505 89.4216 51.7505C90.9454 51.7505 91.7073 51.658 91.7073 51.4732C91.7073 50.7338 91.7816 48.3863 91.9303 44.4307C92.079 40.475 92.1719 38.2939 92.2091 37.8872Z" />
  <path d="M21.5 37L60 15.5L95 33L93.5 35.9842L59.5 20L25 38L21.5 37Z" />
</svg>