<svg viewBox="0 0 96 96" fill="#DDDDDD" xmlns="http://www.w3.org/2000/svg">
  <path
    d="M27.3752 23.6412L34.3473 24.0999C36.0598 31.6837 39.5764 42.4171 44.8973 56.3003C50.2181 70.1223 53.7348 80.4582 55.4472 87.308C55.4472 89.0816 55.1414 90.3966 54.5299 91.2528C53.9183 92.1702 53.1538 92.6289 52.2364 92.6289C51.4413 92.6289 50.6768 92.2925 49.9429 91.6197C49.2702 91.0081 48.8115 90.1213 48.5668 88.9593C48.0164 86.2683 46.2428 80.8863 43.246 72.8133C30.6472 71.2231 22.7271 70.2446 19.4856 69.8776C18.6905 72.0794 17.712 75.6572 16.55 80.6111C15.3879 85.565 14.4706 88.9899 13.7978 90.8858C12.8804 91.9867 11.8407 92.5371 10.6787 92.5371C9.39434 92.5371 8.29347 91.9561 7.37608 90.7941C6.45869 89.6932 6 88.3171 6 86.6658C7.9571 79.5102 11.5043 68.9908 16.6417 55.1077C21.7791 41.2245 25.3569 30.7357 27.3752 23.6412ZM30.586 32.9069C29.3628 40.3071 25.9685 51.1629 20.403 65.4742H30.6778C35.3259 65.4742 39.2095 65.6271 42.3286 65.9329C36.0292 52.4167 32.115 41.408 30.586 32.9069ZM30.3108 18.3204L28.9347 17.8617L36.2738 3.82565L43.6129 3L39.3929 10.7978C39.1483 11.2871 38.8425 11.8987 38.4756 12.6326C38.1086 13.3665 37.8028 13.9781 37.5582 14.4674C37.3135 14.9566 37.0077 15.5071 36.6408 16.1187C36.335 16.7302 35.968 17.2195 35.5399 17.5865C35.173 17.8923 34.7448 18.1981 34.2556 18.5039C33.7663 18.7485 33.1853 18.8708 32.5125 18.8708C31.8398 18.8097 31.1059 18.6262 30.3108 18.3204Z" />
  <path
    d="M62.4194 50.5207L60.5846 45.842C62.1748 44.2519 64.193 42.9981 66.6394 42.0808C69.0858 41.1022 71.5015 40.6129 73.8868 40.6129C84.2227 40.6129 89.3906 49.5422 89.3906 67.4007C89.3906 69.8471 89.2377 73.4554 88.9319 78.2259C88.6873 82.9963 88.565 86.5741 88.565 88.9593C88.0757 90.8552 87.1277 91.8032 85.7211 91.8032C84.6202 91.8032 83.6111 91.2528 82.6937 90.1519C81.7763 89.0511 81.3176 87.8279 81.3176 86.4824C81.3176 86.0543 81.3482 85.7485 81.4093 85.565C77.6175 89.2345 73.581 91.0693 69.2998 91.0693C66.0584 91.0693 63.2145 89.9073 60.7681 87.5832C58.3829 85.198 57.1903 82.3235 57.1903 78.9598C57.1903 73.272 59.392 68.1346 63.7955 63.5476C68.2601 58.9607 73.3057 56.6672 78.9324 56.6672C79.177 56.6672 79.4217 56.6978 79.6663 56.759C79.9109 56.759 80.1862 56.7896 80.492 56.8507C80.8589 56.9119 81.1341 56.9425 81.3176 56.9425C80.8283 49.7868 77.9844 46.209 72.7859 46.209C69.7279 46.209 66.2724 47.6462 62.4194 50.5207ZM81.5928 79.235C81.7151 74.9538 81.7763 71.7124 81.7763 69.5107C81.7763 67.6759 81.7151 65.1072 81.5928 61.8046H80.8589C76.5166 61.8658 72.5413 63.4865 68.9329 66.6668C65.3856 69.8471 63.612 73.7001 63.612 78.2259C63.612 80.183 64.193 81.7425 65.355 82.9045C66.5782 84.0666 68.0461 84.6476 69.7585 84.6476C72.4495 84.6476 76.3943 82.8434 81.5928 79.235ZM73.9785 35.2003L72.6024 34.7416L79.9415 20.7056L87.2806 19.88L83.0606 27.6778C82.816 28.167 82.5102 28.7786 82.1433 29.5125C81.7763 30.2464 81.4705 30.858 81.2259 31.3473C80.9812 31.8366 80.6754 32.387 80.3085 32.9986C80.0027 33.6102 79.6357 34.0995 79.2076 34.4664C78.8407 34.7722 78.4125 35.078 77.9233 35.3838C77.434 35.6285 76.853 35.7508 76.1802 35.7508C75.5075 35.6896 74.7736 35.5061 73.9785 35.2003Z" />
</svg>