<svg viewBox="0 0 96 96" fill="#DDDDDD" xmlns="http://www.w3.org/2000/svg">
  <path
    d="M27.3752 20.6412L34.3473 21.0999C36.0598 28.6837 39.5764 39.4171 44.8973 53.3003C50.2181 67.1223 53.7348 77.4582 55.4472 84.308C55.4472 86.0816 55.1414 87.3966 54.5299 88.2528C53.9183 89.1702 53.1538 89.6289 52.2364 89.6289C51.4413 89.6289 50.6768 89.2925 49.9429 88.6197C49.2702 88.0081 48.8115 87.1213 48.5668 85.9593C48.0164 83.2683 46.2428 77.8863 43.246 69.8133C30.6472 68.2231 22.7271 67.2446 19.4856 66.8776C18.6905 69.0794 17.712 72.6572 16.55 77.6111C15.3879 82.565 14.4706 85.9899 13.7978 87.8858C12.8804 88.9867 11.8407 89.5371 10.6787 89.5371C9.39434 89.5371 8.29347 88.9561 7.37608 87.7941C6.45869 86.6932 6 85.3171 6 83.6658C7.9571 76.5102 11.5043 65.9908 16.6417 52.1077C21.7791 38.2245 25.3569 27.7357 27.3752 20.6412ZM30.586 29.9069C29.3628 37.3071 25.9685 48.1629 20.403 62.4742H30.6778C35.3259 62.4742 39.2095 62.6271 42.3286 62.9329C36.0292 49.4167 32.115 38.408 30.586 29.9069ZM30.3108 15.3204L28.9347 14.8617L36.2738 0.82565L43.6129 0L39.3929 7.7978C39.1483 8.28708 38.8425 8.89867 38.4756 9.63258C38.1086 10.3665 37.8028 10.9781 37.5582 11.4674C37.3135 11.9566 37.0077 12.5071 36.6408 13.1187C36.335 13.7302 35.968 14.2195 35.5399 14.5865C35.173 14.8923 34.7448 15.1981 34.2556 15.5039C33.7663 15.7485 33.1853 15.8708 32.5125 15.8708C31.8398 15.8097 31.1059 15.6262 30.3108 15.3204Z" />
  <path
    d="M62.4194 47.5207L60.5846 42.842C62.1748 41.2519 64.193 39.9981 66.6394 39.0808C69.0858 38.1022 71.5015 37.6129 73.8868 37.6129C84.2227 37.6129 89.3906 46.5422 89.3906 64.4007C89.3906 66.8471 89.2377 70.4554 88.9319 75.2259C88.6873 79.9963 88.565 83.5741 88.565 85.9593C88.0757 87.8552 87.1277 88.8032 85.7211 88.8032C84.6202 88.8032 83.6111 88.2528 82.6937 87.1519C81.7763 86.0511 81.3176 84.8279 81.3176 83.4824C81.3176 83.0543 81.3482 82.7485 81.4093 82.565C77.6175 86.2345 73.581 88.0693 69.2998 88.0693C66.0584 88.0693 63.2145 86.9073 60.7681 84.5832C58.3829 82.198 57.1903 79.3235 57.1903 75.9598C57.1903 70.272 59.392 65.1346 63.7955 60.5476C68.2601 55.9607 73.3057 53.6672 78.9324 53.6672C79.177 53.6672 79.4217 53.6978 79.6663 53.759C79.9109 53.759 80.1862 53.7896 80.492 53.8507C80.8589 53.9119 81.1341 53.9425 81.3176 53.9425C80.8283 46.7868 77.9844 43.209 72.7859 43.209C69.7279 43.209 66.2724 44.6462 62.4194 47.5207ZM81.5928 76.235C81.7151 71.9538 81.7763 68.7124 81.7763 66.5107C81.7763 64.6759 81.7151 62.1072 81.5928 58.8046H80.8589C76.5166 58.8658 72.5413 60.4865 68.9329 63.6668C65.3856 66.8471 63.612 70.7001 63.612 75.2259C63.612 77.183 64.193 78.7425 65.355 79.9045C66.5782 81.0666 68.0461 81.6476 69.7585 81.6476C72.4495 81.6476 76.3943 79.8434 81.5928 76.235ZM73.9785 32.2003L72.6024 31.7416L79.9415 17.7056L87.2806 16.88L83.0606 24.6778C82.816 25.167 82.5102 25.7786 82.1433 26.5125C81.7763 27.2464 81.4705 27.858 81.2259 28.3473C80.9812 28.8366 80.6754 29.387 80.3085 29.9986C80.0027 30.6102 79.6357 31.0995 79.2076 31.4664C78.8407 31.7722 78.4125 32.078 77.9233 32.3838C77.434 32.6285 76.853 32.7508 76.1802 32.7508C75.5075 32.6896 74.7736 32.5061 73.9785 32.2003Z" />
</svg>