<svg viewBox="0 0 96 96" fill="currentColor" xmlns="http://www.w3.org/2000/svg">
  <path
    d="M20.4043 35.582L19.877 37.6914C16.4668 36.2852 13.8125 35.582 11.9141 35.582C10.2266 35.582 9.03125 35.8457 8.32812 36.373C7.66016 36.8652 7.32617 37.9375 7.32617 39.5898C7.32617 40.9258 7.80078 42.0332 8.75 42.9121C9.73438 43.791 10.9121 44.4941 12.2832 45.0215C13.6543 45.5137 15.0254 46.0586 16.3965 46.6562C17.8027 47.2188 18.9805 48.0625 19.9297 49.1875C20.9141 50.3125 21.4062 51.7012 21.4062 53.3535C21.4062 55.6035 20.5801 57.5723 18.9277 59.2598C17.2754 60.9473 15.1309 61.8086 12.4941 61.8438C10.5605 61.8438 8.75 61.4395 7.0625 60.6309C5.375 59.8223 4.03906 58.8027 3.05469 57.5723L4.58398 55.9902C5.00586 56.166 5.62109 56.4473 6.42969 56.834C7.27344 57.2207 7.87109 57.4844 8.22266 57.625C8.57422 57.7305 9.08398 57.8535 9.75195 57.9941C10.4551 58.1348 11.1934 58.2051 11.9668 58.2051C13.6191 58.2051 14.9727 57.8359 16.0273 57.0977C17.082 56.3594 17.6094 55.3223 17.6094 53.9863C17.6094 53.1074 17.3633 52.3691 16.8711 51.7715C16.3789 51.1387 15.7285 50.6289 14.9199 50.2422C14.1113 49.8555 13.2148 49.4863 12.2305 49.1348C11.2812 48.7832 10.3145 48.3965 9.33008 47.9746C8.38086 47.5176 7.50195 46.9902 6.69336 46.3926C5.88477 45.7598 5.23438 44.916 4.74219 43.8613C4.25 42.8066 4.00391 41.5586 4.00391 40.1172C4.00391 38.0078 4.56641 36.25 5.69141 34.8438C6.85156 33.4023 8.46875 32.6816 10.543 32.6816C11.3516 32.6816 12.2656 32.8047 13.2852 33.0508C14.3047 33.2969 15.1133 33.5254 15.7109 33.7363C16.3086 33.9473 17.1875 34.2988 18.3477 34.791C19.543 35.248 20.2285 35.5117 20.4043 35.582ZM45.875 55.8848L46.4023 58.2051C44.8555 58.7676 42.5527 59.4004 39.4941 60.1035C36.4707 60.7715 34.2207 61.1055 32.7441 61.1055C31.2324 61.1055 29.9141 60.6133 28.7891 59.6289C27.6641 58.6094 26.8203 57.3262 26.2578 55.7793C25.6953 54.1973 25.2734 52.6504 24.9922 51.1387C24.7461 49.5918 24.623 48.0801 24.623 46.6035C24.623 37.8145 28.5957 33.4199 36.541 33.4199C38.4395 33.4199 40.1094 34.0352 41.5508 35.2656C42.9922 36.4609 43.7129 38.0254 43.7129 39.959C43.7129 41.0137 43.4141 41.9453 42.8164 42.7539C42.2539 43.5625 41.5508 44.2129 40.707 44.7051C39.8984 45.1621 38.8438 45.584 37.543 45.9707C36.2773 46.3574 35.1523 46.6387 34.168 46.8145C33.1836 46.9902 32.0059 47.1836 30.6348 47.3945C29.2637 47.6055 28.3145 47.7637 27.7871 47.8691C27.8223 48.8887 27.875 49.7852 27.9453 50.5586C28.0508 51.332 28.2266 52.1758 28.4727 53.0898C28.7539 53.9688 29.1055 54.707 29.5273 55.3047C29.9844 55.8672 30.5996 56.3418 31.373 56.7285C32.1465 57.1152 33.0605 57.3086 34.1152 57.3086C35.3809 57.3086 36.9277 57.2031 38.7559 56.9922C40.584 56.7461 42.2012 56.5 43.6074 56.2539C45.0488 56.0078 45.8047 55.8848 45.875 55.8848ZM27.998 44.5996C32.7793 43.2285 36.6992 41.7871 39.7578 40.2754C39.5117 39.1152 39.1777 38.2715 38.7559 37.7441C38.334 37.2168 37.7012 36.9531 36.8574 36.9531C34.7129 36.9531 32.7617 37.6914 31.0039 39.168C29.2812 40.6445 28.2793 42.4551 27.998 44.5996ZM66.2832 34.8438L66.0195 37.1113C64.543 36.9004 63.2773 36.7949 62.2227 36.7949C59.7969 36.7949 57.793 37.5332 56.2109 39.0098C54.6289 40.4512 53.5391 42.1738 52.9414 44.1777C52.3789 46.1465 52.0977 48.3438 52.0977 50.7695C52.0977 51.8945 52.168 52.8965 52.3086 53.7754C52.4492 54.6543 52.6953 55.5156 53.0469 56.3594C53.4336 57.2031 54.0137 57.8711 54.7871 58.3633C55.5957 58.8203 56.5801 59.0488 57.7402 59.0488C59.2871 59.0488 61.2559 58.75 63.6465 58.1523C64.3848 57.8711 64.9648 57.7305 65.3867 57.7305C66.2305 57.7305 66.7402 58.7148 66.916 60.6836C63.8223 61.668 60.957 62.1602 58.3203 62.1602C54.4883 62.1602 51.8867 61.2285 50.5156 59.3652C49.1797 57.4668 48.5117 54.4082 48.5117 50.1895C48.5117 47.7285 48.6699 45.584 48.9863 43.7559C49.3379 41.8926 49.9355 40.1699 50.7793 38.5879C51.623 36.9707 52.8359 35.7402 54.418 34.8965C56.0352 34.0527 58.0039 33.6309 60.3242 33.6309C62.9258 33.6309 64.9121 34.0352 66.2832 34.8438ZM93.3634 42.904C93.3634 46.776 92.9634 50.104 92.1634 52.888C91.3954 55.64 90.1474 57.768 88.4194 59.272C86.7234 60.744 84.4674 61.48 81.6514 61.48C77.6834 61.48 74.7554 59.832 72.8674 56.536C71.0114 53.24 70.0834 48.696 70.0834 42.904C70.0834 39 70.4674 35.656 71.2354 32.872C72.0034 30.088 73.2354 27.96 74.9314 26.488C76.6594 25.016 78.8994 24.28 81.6514 24.28C85.6514 24.28 88.5954 25.912 90.4834 29.176C92.4034 32.408 93.3634 36.984 93.3634 42.904ZM81.6514 27.736C79.2194 27.736 77.4274 28.824 76.2754 31C75.1554 33.144 74.5154 36.36 74.3554 40.648H89.0434C88.8834 36.36 88.2274 33.144 87.0754 31C85.9234 28.824 84.1154 27.736 81.6514 27.736ZM81.6514 58.024C84.1474 58.024 85.9874 56.872 87.1714 54.568C88.3554 52.264 88.9954 48.792 89.0914 44.152H74.3554C74.4194 48.728 75.0114 52.184 76.1314 54.52C77.2834 56.856 79.1234 58.024 81.6514 58.024Z" />
</svg>