<svg viewBox="0 0 96 96" fill="currentColor" xmlns="http://www.w3.org/2000/svg">
  <path
    d="M6.00427 63.3669C0.399297 57.6524 19.762 23.9371 26.8957 22.2228C34.0293 20.5084 43.2609 18.2227 52.4328 22.2228C61.6047 26.2229 63.6012 42.6193 71.2444 43.0089C82.4544 43.5804 92.1367 59.8046 89.5889 64.9476C86.143 71.9038 82.0867 48.8949 70.2252 48.8949C61.5629 48.8949 53.9614 31.3659 49.8851 28.5087C46.8278 26.3658 41.1718 25.8719 32 28C23.5661 29.9569 17.3224 45 14.6819 51.5704C14.3682 52.3508 13.024 55.8511 14.6819 56.3862C17.2297 57.2085 17.0706 53.4875 22.835 51.5704C27.7854 49.9239 35.3357 49.7959 38.6317 54.2458C41.9574 58.7357 43.8065 59.7266 48.8232 60.1318C53.8399 60.537 54.4285 53.7107 59.0146 52.1054C61.5625 51.2136 68.6965 52.1054 70.2252 53.7107C81.535 65.5871 83.1909 58.5265 79.891 54.7809C76.5911 51.0353 89.4327 65.5178 88.6441 66.1666C87.1153 67.3801 74.5566 66.5529 73.7922 64.4125C73.134 62.5695 67.7042 58.2111 66.6582 57.9914C59.0146 56.3862 57.4859 63.3424 55.4476 66.5529C54.7682 67.6231 38.8715 66.5737 38.6317 65.4827C37.103 58.5265 33.536 55.9581 29.4595 56.3862C24.3637 56.9213 21.197 59.5967 20.2872 61.7371C18.0774 66.9352 7.92406 65.3242 6.00427 63.3669Z" />
  <path fill-rule="evenodd" clip-rule="evenodd"
    d="M31.6471 70.7059C32.2444 70.0032 33.1538 69.4488 33.1538 67.6923C33.1538 65.8753 32.8116 65.572 32.1765 64.8824C31.569 64.2227 30.4185 63.2941 29 63.2941C25.709 63.2941 25.2941 65.0232 25.2941 67C25.2941 69.6974 26.5276 71.1538 29 71.1538C30.3846 71.1538 31.2882 71.128 31.6471 70.7059ZM29.6923 76C35.2308 76 38 71.9706 38 67C38 61.6447 34.6629 58 29.6923 58C24.1538 58 20 62.6827 20 67C20 72.5385 24.7217 76 29.6923 76Z" />
  <path fill-rule="evenodd" clip-rule="evenodd"
    d="M67.625 70.6875C68.585 69.7495 68.6875 69.0938 68.6875 67.5C68.6875 65.9062 66.481 64.3125 65.5 64.3125C62.8846 64.3125 62.3125 65.3018 62.3125 67.5C62.3125 69.116 62.6608 70.0044 63.375 70.6875C63.8544 71.146 64.0659 71.2188 65.5 71.2188C66.4665 71.2188 67.2998 71.0053 67.625 70.6875ZM65.5 76C69.786 76 74 72.0769 74 67.5C74 62.2692 68.7692 59 64.8462 59C60.1517 59 57 63.3525 57 67.5C57 72.7308 60.8056 76 65.5 76Z" />
</svg>