<svg viewBox="0 0 96 96" fill="#DDDDDD" xmlns="http://www.w3.org/2000/svg">
  <path
    d="M5.96728 34.6783L23.6074 34.8353L24.8113 60.2225C24.4973 61.2694 23.8866 61.7928 22.9793 61.7928C22.3511 61.7928 21.7405 61.5311 21.1472 61.0076C20.554 60.5191 20.1876 59.9084 20.048 59.1756C20.0829 58.5474 20.1352 56.5758 20.205 53.2606C20.3097 49.9106 20.4144 46.7176 20.5191 43.6816C20.6238 40.6107 20.6936 38.6216 20.7285 37.7143C19.7514 37.6445 18.3032 37.6096 16.3839 37.6096C13.7666 37.6096 11.5856 37.5049 9.84079 37.2955C9.94547 38.4471 10.0327 42.1636 10.1025 48.4449C10.1723 54.6914 10.2421 58.3206 10.3119 59.3326C9.99782 60.4144 9.38713 60.9553 8.47983 60.9553C7.85169 60.9553 7.241 60.711 6.64776 60.2225C6.08942 59.699 5.74046 59.0709 5.60087 58.3381C5.70556 56.5932 5.75791 54.8484 5.75791 53.1036C5.75791 52.1963 5.74046 50.6957 5.70556 48.602C5.67067 46.5082 5.65322 44.8506 5.65322 43.6292C5.65322 40.0349 5.75791 37.0513 5.96728 34.6783Z" />
  <path
    d="M29.6794 33.3173L32.6107 33.8408C32.6107 34.5736 32.6281 35.1145 32.663 35.4635C34.5823 34.2421 36.5191 33.6314 38.4733 33.6314C41.6489 33.6314 44.1265 34.9924 45.9062 37.7143C47.6859 40.4362 48.5758 43.5245 48.5758 46.9793C48.5758 48.7241 48.4362 50.3991 48.157 52.0044C47.9128 53.5747 47.4591 55.1974 46.7961 56.8724C46.133 58.5125 45.1036 59.8386 43.7077 60.8506C42.3468 61.8277 40.6892 62.3162 38.735 62.3162C36.8855 62.3162 35.1058 61.8277 33.3959 60.8506C33.5354 66.9575 33.6576 71.494 33.7623 74.4602C33.4482 75.542 32.8375 76.0829 31.9302 76.0829C31.3021 76.0829 30.6914 75.8212 30.0981 75.2977C29.5398 74.8092 29.1908 74.1985 29.0513 73.4657L29.6794 33.3173ZM33.0818 38.8659L33.2388 55.7732C33.6576 56.6107 34.3032 57.2912 35.1756 57.8146C36.048 58.3032 37.0076 58.5474 38.0545 58.5474C39.4155 58.5474 40.5671 58.1112 41.5093 57.2388C42.4864 56.3664 43.1668 55.2148 43.5507 53.7841C43.9695 52.3184 44.2486 50.9575 44.3882 49.7012C44.5627 48.4449 44.6499 47.1189 44.6499 45.723C44.6499 39.7906 42.6434 36.8244 38.6303 36.8244C37.3391 36.8244 36.1352 37.0164 35.0185 37.4002C33.9368 37.7492 33.2912 38.2377 33.0818 38.8659Z" />
  <path
    d="M73.9106 55.7732L74.434 58.0763C72.8986 58.6347 70.6129 59.2628 67.5769 59.9607C64.5758 60.6238 62.3424 60.9553 60.8768 60.9553C59.3762 60.9553 58.0676 60.4667 56.9509 59.4896C55.8342 58.4776 54.9967 57.2039 54.4384 55.6685C53.88 54.0981 53.4613 52.5627 53.1821 51.0622C52.9378 49.5267 52.8157 48.0262 52.8157 46.5605C52.8157 37.8364 56.759 33.4744 64.6456 33.4744C66.53 33.4744 68.1876 34.0851 69.6183 35.3064C71.0491 36.4929 71.7644 38.0458 71.7644 39.9651C71.7644 41.012 71.4678 41.9368 70.8746 42.7394C70.3162 43.542 69.6183 44.1876 68.7808 44.6761C67.9782 45.1298 66.9313 45.5485 65.6401 45.9324C64.3839 46.3162 63.2672 46.5954 62.2901 46.7699C61.313 46.9444 60.1439 47.1363 58.783 47.3457C57.422 47.5551 56.4798 47.7121 55.9564 47.8168C55.9913 48.8288 56.0436 49.7186 56.1134 50.4864C56.2181 51.2541 56.3926 52.0916 56.6369 52.9989C56.916 53.8713 57.265 54.6041 57.6837 55.1974C58.1374 55.7557 58.7481 56.2268 59.5158 56.6107C60.2835 56.9945 61.1908 57.1865 62.2377 57.1865C63.494 57.1865 65.0294 57.0818 66.8441 56.8724C68.6587 56.6281 70.2639 56.3839 71.6598 56.1396C73.0905 55.8953 73.8408 55.7732 73.9106 55.7732ZM56.1658 44.5714C60.9117 43.2105 64.8026 41.7797 67.8386 40.2792C67.5943 39.1276 67.2628 38.2901 66.8441 37.7666C66.4253 37.2432 65.7972 36.9815 64.9596 36.9815C62.831 36.9815 60.8942 37.7143 59.1494 39.1799C57.4395 40.6456 56.4449 42.4427 56.1658 44.5714Z" />
  <path
    d="M76.0044 45.2519L75.4286 42.8964L92.8593 41.6925C93.7317 41.7274 94.4646 42.0589 95.0578 42.687C95.6859 43.2803 96 43.9258 96 44.6238C96 45.0774 95.8255 45.4787 95.4766 45.8277C95.1276 46.1767 94.6041 46.386 93.9062 46.4558L76.0044 45.2519Z" />
  <path d="M0 24H78.1679L77.0513 37.6096L74.434 36.2661L75.4286 27.3501L2.23337 26.2334L0 24Z" />
</svg>