<svg viewBox="0 0 96 96" fill="currentColor" xmlns="http://www.w3.org/2000/svg">
  <path
    d="M20.9336 34.8438L20.6699 37.1113C19.1934 36.9004 17.9277 36.7949 16.873 36.7949C14.4473 36.7949 12.4434 37.5332 10.8613 39.0098C9.2793 40.4512 8.18945 42.1738 7.5918 44.1777C7.0293 46.1465 6.74805 48.3438 6.74805 50.7695C6.74805 51.8945 6.81836 52.8965 6.95898 53.7754C7.09961 54.6543 7.3457 55.5156 7.69727 56.3594C8.08398 57.2031 8.66406 57.8711 9.4375 58.3633C10.2461 58.8203 11.2305 59.0488 12.3906 59.0488C13.9375 59.0488 15.9062 58.75 18.2969 58.1523C19.0352 57.8711 19.6152 57.7305 20.0371 57.7305C20.8809 57.7305 21.3906 58.7148 21.5664 60.6836C18.4727 61.668 15.6074 62.1602 12.9707 62.1602C9.13867 62.1602 6.53711 61.2285 5.16602 59.3652C3.83008 57.4668 3.16211 54.4082 3.16211 50.1895C3.16211 47.7285 3.32031 45.584 3.63672 43.7559C3.98828 41.8926 4.58594 40.1699 5.42969 38.5879C6.27344 36.9707 7.48633 35.7402 9.06836 34.8965C10.6855 34.0527 12.6543 33.6309 14.9746 33.6309C17.5762 33.6309 19.5625 34.0352 20.9336 34.8438ZM38.6523 35.4766L39.2324 37.8496C38.2832 37.9199 36.8242 38.1133 34.8555 38.4297C32.8867 38.7109 31.4102 38.8867 30.4258 38.957C30.6016 40.1875 30.707 41.8047 30.7422 43.8086C30.7773 45.8125 30.8125 47.5527 30.8477 49.0293C30.918 50.4707 31.0762 51.9297 31.3223 53.4062C31.6035 54.8477 32.1484 55.9551 32.957 56.7285C33.8008 57.502 34.9258 57.8887 36.332 57.8887C37.3867 57.8887 38.7051 57.6426 40.2871 57.1504C40.9551 58.4512 41.4473 59.4004 41.7637 59.998C38.9863 60.9824 36.1738 61.4746 33.3262 61.4746C32.2715 61.4746 31.3574 61.1582 30.584 60.5254C29.8105 59.8926 29.2129 59.1016 28.791 58.1523C28.3691 57.2031 28.0176 56.0078 27.7363 54.5664C27.4902 53.0898 27.332 51.7012 27.2617 50.4004C27.1914 49.0996 27.1562 47.6055 27.1562 45.918C27.1562 45.0039 27.1562 43.7383 27.1562 42.1211C27.1914 40.5039 27.209 39.3965 27.209 38.7988C26.8574 38.834 26.0312 38.8691 24.7305 38.9043C23.4297 38.9043 22.6738 38.9043 22.4629 38.9043C22.2168 36.5488 22.0938 35.3359 22.0938 35.2656C22.3398 35.3359 22.7441 35.3711 23.3066 35.3711C23.623 35.3711 24.1328 35.3535 24.8359 35.3184C25.5391 35.248 26.0664 35.2129 26.418 35.2129C26.5586 35.2129 26.7344 35.2305 26.9453 35.2656C27.1914 35.2656 27.3496 35.2656 27.4199 35.2656C27.5605 31.3984 27.7188 28.252 27.8945 25.8262L30.2676 26.4062C30.3027 27.25 30.3203 28.1641 30.3203 29.1484C30.3555 30.0977 30.373 31.1699 30.373 32.3652C30.4082 33.5254 30.4258 34.4219 30.4258 35.0547C31.3398 35.125 32.7109 35.1953 34.5391 35.2656C36.3672 35.3359 37.7383 35.4062 38.6523 35.4766ZM57.8477 33.7891L60.2207 33.2617C60.2207 34.3164 60.2383 35.1426 60.2734 35.7402C60.4844 43.4395 60.5898 48.4492 60.5898 50.7695C60.5898 51.5781 60.6074 52.8438 60.6426 54.5664C60.6777 56.2891 60.6953 57.5898 60.6953 58.4688C60.6953 60.4023 60.625 62.0723 60.4844 63.4785C60.3789 64.8848 60.1152 66.3438 59.6934 67.8555C59.2715 69.4023 58.6914 70.6504 57.9531 71.5996C57.25 72.584 56.2305 73.3926 54.8945 74.0254C53.5938 74.6582 52.0469 74.9746 50.2539 74.9746C48.707 74.9746 45.9824 74.7461 42.0801 74.2891C42.0449 73.9023 41.9746 73.4805 41.8691 73.0234C41.7988 72.5664 41.7637 72.2148 41.7637 71.9688C41.7637 71.4414 41.8164 71.0195 41.9219 70.7031C42.2031 70.7383 43.293 70.8789 45.1914 71.125C47.125 71.3711 48.5488 71.4941 49.4629 71.4941C51.8887 71.4941 53.752 70.7559 55.0527 69.2793C56.3535 67.8027 57.0215 65.043 57.0566 61C55.334 61.9844 53.5234 62.4766 51.625 62.4766C50.043 62.4766 48.6543 62.1426 47.459 61.4746C46.2637 60.8418 45.3145 60.0332 44.6113 59.0488C43.9082 58.0293 43.3281 56.8164 42.8711 55.4102C42.4492 53.9688 42.1504 52.5801 41.9746 51.2441C41.834 49.9082 41.7637 48.4844 41.7637 46.9727C41.7637 43.1758 42.5898 39.9941 44.2422 37.4277C45.9297 34.8613 48.4785 33.5781 51.8887 33.5781C53.8926 33.5781 55.8613 34.1934 57.7949 35.4238C57.8301 35.0723 57.8477 34.5273 57.8477 33.7891ZM57.2148 55.8848L57.373 38.8516C57.1621 38.2188 56.4941 37.7266 55.3691 37.375C54.2793 36.9883 53.0664 36.7949 51.7305 36.7949C49.832 36.7949 48.3555 37.6738 47.3008 39.4316C46.2461 41.1543 45.7188 43.2637 45.7188 45.7598C45.7188 47.0605 45.7891 48.3438 45.9297 49.6094C46.0703 50.8398 46.3516 52.2109 46.7734 53.7227C47.1953 55.1992 47.8809 56.3945 48.8301 57.3086C49.7793 58.2227 50.957 58.6797 52.3633 58.6797C53.418 58.6797 54.3848 58.4336 55.2637 57.9414C56.1426 57.4141 56.793 56.7285 57.2148 55.8848ZM73.6574 37.288C72.4734 38.856 71.5134 40.504 70.7774 42.232C70.0734 43.928 69.7214 45.896 69.7214 48.136C69.7214 50.472 70.0894 52.344 70.8254 53.752C71.5934 55.128 72.6014 56.136 73.8494 56.776C75.0974 57.416 76.4574 57.816 77.9294 57.976V43.672C77.9294 40.76 78.6014 38.552 79.9454 37.048C81.3214 35.544 83.1774 34.792 85.5134 34.792C87.4974 34.792 89.1934 35.336 90.6014 36.424C92.0094 37.48 93.0974 38.968 93.8654 40.888C94.6334 42.776 95.0174 44.984 95.0174 47.512C95.0174 50.616 94.4094 53.176 93.1934 55.192C92.0094 57.176 90.4254 58.68 88.4414 59.704C86.4894 60.728 84.3614 61.304 82.0574 61.432V72.52H77.9294V61.432C75.5614 61.304 73.4334 60.776 71.5454 59.848C69.6894 58.92 68.2174 57.496 67.1294 55.576C66.0414 53.656 65.4974 51.128 65.4974 47.992C65.4974 45.4 65.9614 43.032 66.8894 40.888C67.8174 38.712 68.9854 36.76 70.3934 35.032L73.6574 37.288ZM85.5614 38.296C84.6334 38.296 83.8174 38.68 83.1134 39.448C82.4094 40.216 82.0574 41.608 82.0574 43.624V57.976C83.6894 57.816 85.1614 57.352 86.4734 56.584C87.7854 55.784 88.8254 54.648 89.5934 53.176C90.3614 51.672 90.7454 49.8 90.7454 47.56C90.7454 44.552 90.2494 42.264 89.2574 40.696C88.2974 39.096 87.0654 38.296 85.5614 38.296Z" />
</svg>