<svg viewBox="0 0 32 32" fill="#DDDDDD" xmlns="http://www.w3.org/2000/svg">
  <path
    d="M1.15225 16.0051C1.09393 15.2535 2.6275 14.5 3.42379 14.5H27.7901C28.2397 14.5 30.7019 14.8348 30.8518 16.0051C30.9572 16.8278 28.9238 17.5 28.2929 17.5L3.61048 17.2614C2.83058 17.2253 1.23282 17.0433 1.15225 16.0051Z" />
  <path
    d="M1.1405 6.96679C1.1405 6.27301 2.48197 5.64241 3.46735 5.60615L28.6702 5.433C29.063 5.433 30.7195 5.87828 30.8535 6.96679C30.9554 7.79525 27.8163 8.433 27.0485 8.433L3.29764 8.22875C2.65005 8.22875 1.14049 7.39143 1.1405 6.96679Z" />
  <path
    d="M1.14051 25.0746C1.36894 24.3961 2.81328 23.5667 3.50863 23.5667L28.9744 23.7188C29.4304 23.7188 31.044 24.119 30.8535 25.0746C30.692 25.885 29.6526 26.5162 28.0157 26.5162L3.45015 26.5667C0.702477 26.4941 1.05391 25.3319 1.14051 25.0746Z" />
</svg>