<svg viewBox="0 0 96 96" fill="currentColor" xmlns="http://www.w3.org/2000/svg">
  <path
    d="M30.3984 34.6406L31.043 37.2773C29.9883 37.3555 28.3672 37.5703 26.1797 37.9219C23.9922 38.2344 22.3516 38.4297 21.2578 38.5078C21.4531 39.875 21.5703 41.6719 21.6094 43.8984C21.6484 46.125 21.6875 48.0586 21.7266 49.6992C21.8047 51.3008 21.9805 52.9219 22.2539 54.5625C22.5664 56.1641 23.1719 57.3945 24.0703 58.2539C25.0078 59.1133 26.2578 59.543 27.8203 59.543C28.9922 59.543 30.457 59.2695 32.2148 58.7227C32.957 60.168 33.5039 61.2227 33.8555 61.8867C30.7695 62.9805 27.6445 63.5273 24.4805 63.5273C23.3086 63.5273 22.293 63.1758 21.4336 62.4727C20.5742 61.7695 19.9102 60.8906 19.4414 59.8359C18.9727 58.7812 18.582 57.4531 18.2695 55.8516C17.9961 54.2109 17.8203 52.668 17.7422 51.2227C17.6641 49.7773 17.625 48.1172 17.625 46.2422C17.625 45.2266 17.625 43.8203 17.625 42.0234C17.6641 40.2266 17.6836 38.9961 17.6836 38.332C17.293 38.3711 16.375 38.4102 14.9297 38.4492C13.4844 38.4492 12.6445 38.4492 12.4102 38.4492C12.1367 35.832 12 34.4844 12 34.4062C12.2734 34.4844 12.7227 34.5234 13.3477 34.5234C13.6992 34.5234 14.2656 34.5039 15.0469 34.4648C15.8281 34.3867 16.4141 34.3477 16.8047 34.3477C16.9609 34.3477 17.1562 34.3672 17.3906 34.4062C17.6641 34.4062 17.8398 34.4062 17.918 34.4062C18.0742 30.1094 18.25 26.6133 18.4453 23.918L21.082 24.5625C21.1211 25.5 21.1406 26.5156 21.1406 27.6094C21.1797 28.6641 21.1992 29.8555 21.1992 31.1836C21.2383 32.4727 21.2578 33.4688 21.2578 34.1719C22.2734 34.25 23.7969 34.3281 25.8281 34.4062C27.8594 34.4844 29.3828 34.5625 30.3984 34.6406ZM51.7266 32.7656L54.3633 32.1797C54.3633 33.3516 54.3828 34.2695 54.4219 34.9336C54.6562 43.4883 54.7734 49.0547 54.7734 51.6328C54.7734 52.5312 54.793 53.9375 54.832 55.8516C54.8711 57.7656 54.8906 59.2109 54.8906 60.1875C54.8906 62.3359 54.8125 64.1914 54.6562 65.7539C54.5391 67.3164 54.2461 68.9375 53.7773 70.6172C53.3086 72.3359 52.6641 73.7227 51.8438 74.7773C51.0625 75.8711 49.9297 76.7695 48.4453 77.4727C47 78.1758 45.2812 78.5273 43.2891 78.5273C41.5703 78.5273 38.543 78.2734 34.207 77.7656C34.168 77.3359 34.0898 76.8672 33.9727 76.3594C33.8945 75.8516 33.8555 75.4609 33.8555 75.1875C33.8555 74.6016 33.9141 74.1328 34.0312 73.7812C34.3438 73.8203 35.5547 73.9766 37.6641 74.25C39.8125 74.5234 41.3945 74.6602 42.4102 74.6602C45.1055 74.6602 47.1758 73.8398 48.6211 72.1992C50.0664 70.5586 50.8086 67.4922 50.8477 63C48.9336 64.0938 46.9219 64.6406 44.8125 64.6406C43.0547 64.6406 41.5117 64.2695 40.1836 63.5273C38.8555 62.8242 37.8008 61.9258 37.0195 60.832C36.2383 59.6992 35.5938 58.3516 35.0859 56.7891C34.6172 55.1875 34.2852 53.6445 34.0898 52.1602C33.9336 50.6758 33.8555 49.0938 33.8555 47.4141C33.8555 43.1953 34.7734 39.6602 36.6094 36.8086C38.4844 33.957 41.3164 32.5312 45.1055 32.5312C47.332 32.5312 49.5195 33.2148 51.668 34.582C51.707 34.1914 51.7266 33.5859 51.7266 32.7656ZM51.0234 57.3164L51.1992 38.3906C50.9648 37.6875 50.2227 37.1406 48.9727 36.75C47.7617 36.3203 46.4141 36.1055 44.9297 36.1055C42.8203 36.1055 41.1797 37.082 40.0078 39.0352C38.8359 40.9492 38.25 43.293 38.25 46.0664C38.25 47.5117 38.3281 48.9375 38.4844 50.3438C38.6406 51.7109 38.9531 53.2344 39.4219 54.9141C39.8906 56.5547 40.6523 57.8828 41.707 58.8984C42.7617 59.9141 44.0703 60.4219 45.6328 60.4219C46.8047 60.4219 47.8789 60.1484 48.8555 59.6016C49.832 59.0156 50.5547 58.2539 51.0234 57.3164ZM74.303 62.298C73.763 63.738 73.295 65.286 72.899 66.942C72.503 68.598 72.197 70.2 71.981 71.748C71.765 73.332 71.657 74.736 71.657 75.96H66.527C66.527 74.952 66.635 73.692 66.851 72.18C67.103 70.668 67.427 69.066 67.823 67.374C68.255 65.718 68.741 64.152 69.281 62.676L57.563 34.056H62.477L68.579 49.23C68.975 50.166 69.371 51.21 69.767 52.362C70.163 53.514 70.523 54.612 70.847 55.656C71.171 56.7 71.387 57.546 71.495 58.194H71.711C71.819 57.618 72.017 56.79 72.305 55.71C72.629 54.63 72.971 53.514 73.331 52.362C73.727 51.21 74.069 50.238 74.357 49.446L80.081 34.056H84.995L74.303 62.298Z" />
</svg>