<svg viewBox="0 0 96 96" fill="currentColor" xmlns="http://www.w3.org/2000/svg">
  <path fill-rule="evenodd" clip-rule="evenodd"
    d="M49.5 67.0388C49.5 67.0388 59.2513 70.3483 63 68.961C66.7751 67.5638 69 61.5388 69 61.5388C69 61.5388 74.2561 61.5388 76.5 57.5388C78 54.8649 76 48.5388 76 48.5388C76 48.5388 80 41.2211 80 39.0388C80 33.8865 73.5 31.5388 73.5 31.5388C73.5 31.5388 70.9686 24.4684 67.5 22.5388C62.7418 19.8917 56.5 22.5388 56.5 22.5388C56.5 22.5388 49 18.0388 43 18.5388C37 19.0388 32 28.5388 32 28.5388C32 28.5388 22.9375 29.0388 20.5 35.5388C18.0625 42.0388 24.5 53 24.5 53L22.5 59L27.5 57.5388C27.5 57.5388 32.0818 70.1748 35.5 71.5388C39.6148 73.1808 49.5 67.0388 49.5 67.0388ZM65 79.0388C72.5 78.5388 75.5 68.5388 75.5 68.5388C75.5 68.5388 84 65.5388 85.5 60.5388C87 55.5388 84.5 49.5388 84.5 49.5388C84.5 49.5388 89 43.5388 88 37.0388C87 30.5388 80.5 27.0388 80.5 27.0388C80.5 27.0388 76.3788 18.5748 71 15.0388C67.6923 12.8643 59 14.0388 59 14.0388C59 14.0388 50.5 9.53878 41.5 10.0388C32.5 10.5388 26 21.0388 26 21.0388C26 21.0388 14.5 23.5388 11.5 32.5388C8.5 41.5388 15 56.0388 15 56.0388L8 85.5388L22.5 68.5388C22.5 68.5388 25.5 79.5388 32 81.0388C38.5 82.5388 48.5 76.0388 48.5 76.0388C48.5 76.0388 57.5 79.5388 65 79.0388Z" />
</svg>