<svg viewBox="0 0 97 96" fill="#DDDDDD" xmlns="http://www.w3.org/2000/svg">
    <path
        d="M97.0001 48.5C97.0001 48.5 90.5707 58.8631 78.5 66.4143C78.4787 66.4276 74 60.5 74 60.5C76.5 59 88 47.5 88 47.5C88 47.5 69.75 25.5 43.5 29C30 30.8 10.5 49 10.5 49C10.5 49 25 62.5 40 65.5C60 69.5 72.5 61.5 74 60.5L78.5 66.4143C70.7083 71.2787 58.9679 75.4793 48 74.5C11.5969 71.2497 0.500046 52 1.00004 48.5C1.00004 48.5 17 21 52.5 21C83 21 97.0001 48.5 97.0001 48.5Z" />
    <path
        d="M67.0929 46.3898C67.5154 51.2492 66.28 56.488 63.4188 60.1325C60.7486 63.5337 56.3504 65.9759 49.158 65.0378C39.5638 63.7864 32.7978 56.5255 33.5604 47.3737C34.0552 41.4368 35.9605 37.5981 38.4769 35.236C40.9851 32.8816 44.6264 31.5 49.576 31.5C58.9034 31.5 66.4745 39.2781 67.0929 46.3898Z"
        stroke="#DDDDDD" stroke-width="9" fill="none" />
    <path d="M74.5 12L81 14.5L27.362 85.3809L18 81.5L74.5 12Z" />
</svg>