<svg viewBox="0 0 96 96" fill="currentColor" xmlns="http://www.w3.org/2000/svg">
<path d="M36.6797 26.0156L40.2422 26.25C41.1172 30.125 42.9141 35.6094 45.6328 42.7031C48.3516 49.7656 50.1484 55.0469 51.0234 58.5469C51.0234 59.4531 50.8672 60.125 50.5547 60.5625C50.2422 61.0312 49.8516 61.2656 49.3828 61.2656C48.9766 61.2656 48.5859 61.0938 48.2109 60.75C47.8672 60.4375 47.6328 59.9844 47.5078 59.3906C47.2266 58.0156 46.3203 55.2656 44.7891 51.1406C38.3516 50.3281 34.3047 49.8281 32.6484 49.6406C32.2422 50.7656 31.7422 52.5938 31.1484 55.125C30.5547 57.6562 30.0859 59.4062 29.7422 60.375C29.2734 60.9375 28.7422 61.2188 28.1484 61.2188C27.4922 61.2188 26.9297 60.9219 26.4609 60.3281C25.9922 59.7656 25.7578 59.0625 25.7578 58.2188C26.7578 54.5625 28.5703 49.1875 31.1953 42.0938C33.8203 35 35.6484 29.6406 36.6797 26.0156ZM38.3203 30.75C37.6953 34.5312 35.9609 40.0781 33.1172 47.3906H38.3672C40.7422 47.3906 42.7266 47.4688 44.3203 47.625C41.1016 40.7188 39.1016 35.0938 38.3203 30.75ZM38.1797 23.2969L37.4766 23.0625L41.2266 15.8906L44.9766 15.4688L42.8203 19.4531C42.6953 19.7031 42.5391 20.0156 42.3516 20.3906C42.1641 20.7656 42.0078 21.0781 41.8828 21.3281C41.7578 21.5781 41.6016 21.8594 41.4141 22.1719C41.2578 22.4844 41.0703 22.7344 40.8516 22.9219C40.6641 23.0781 40.4453 23.2344 40.1953 23.3906C39.9453 23.5156 39.6484 23.5781 39.3047 23.5781C38.9609 23.5469 38.5859 23.4531 38.1797 23.2969Z" />
<path d="M54.5859 39.75L53.6484 37.3594C54.4609 36.5469 55.4922 35.9062 56.7422 35.4375C57.9922 34.9375 59.2266 34.6875 60.4453 34.6875C65.7266 34.6875 68.3672 39.25 68.3672 48.375C68.3672 49.625 68.2891 51.4688 68.1328 53.9062C68.0078 56.3438 67.9453 58.1719 67.9453 59.3906C67.6953 60.3594 67.2109 60.8438 66.4922 60.8438C65.9297 60.8438 65.4141 60.5625 64.9453 60C64.4766 59.4375 64.2422 58.8125 64.2422 58.125C64.2422 57.9062 64.2578 57.75 64.2891 57.6562C62.3516 59.5312 60.2891 60.4688 58.1016 60.4688C56.4453 60.4688 54.9922 59.875 53.7422 58.6875C52.5234 57.4688 51.9141 56 51.9141 54.2812C51.9141 51.375 53.0391 48.75 55.2891 46.4062C57.5703 44.0625 60.1484 42.8906 63.0234 42.8906C63.1484 42.8906 63.2734 42.9062 63.3984 42.9375C63.5234 42.9375 63.6641 42.9531 63.8203 42.9844C64.0078 43.0156 64.1484 43.0312 64.2422 43.0312C63.9922 39.375 62.5391 37.5469 59.8828 37.5469C58.3203 37.5469 56.5547 38.2812 54.5859 39.75ZM64.3828 54.4219C64.4453 52.2344 64.4766 50.5781 64.4766 49.4531C64.4766 48.5156 64.4453 47.2031 64.3828 45.5156H64.0078C61.7891 45.5469 59.7578 46.375 57.9141 48C56.1016 49.625 55.1953 51.5938 55.1953 53.9062C55.1953 54.9062 55.4922 55.7031 56.0859 56.2969C56.7109 56.8906 57.4609 57.1875 58.3359 57.1875C59.7109 57.1875 61.7266 56.2656 64.3828 54.4219ZM60.4922 31.9219L59.7891 31.6875L63.5391 24.5156L67.2891 24.0938L65.1328 28.0781C65.0078 28.3281 64.8516 28.6406 64.6641 29.0156C64.4766 29.3906 64.3203 29.7031 64.1953 29.9531C64.0703 30.2031 63.9141 30.4844 63.7266 30.7969C63.5703 31.1094 63.3828 31.3594 63.1641 31.5469C62.9766 31.7031 62.7578 31.8594 62.5078 32.0156C62.2578 32.1406 61.9609 32.2031 61.6172 32.2031C61.2734 32.1719 60.8984 32.0781 60.4922 31.9219Z" />
</svg>
