<svg viewBox="0 0 96 96" fill="currentColor" xmlns="http://www.w3.org/2000/svg">
  <path
    d="M21.9336 34.8438L21.6699 37.1113C20.1934 36.9004 18.9277 36.7949 17.873 36.7949C15.4473 36.7949 13.4434 37.5332 11.8613 39.0098C10.2793 40.4512 9.18945 42.1738 8.5918 44.1777C8.0293 46.1465 7.74805 48.3438 7.74805 50.7695C7.74805 51.8945 7.81836 52.8965 7.95898 53.7754C8.09961 54.6543 8.3457 55.5156 8.69727 56.3594C9.08398 57.2031 9.66406 57.8711 10.4375 58.3633C11.2461 58.8203 12.2305 59.0488 13.3906 59.0488C14.9375 59.0488 16.9062 58.75 19.2969 58.1523C20.0352 57.8711 20.6152 57.7305 21.0371 57.7305C21.8809 57.7305 22.3906 58.7148 22.5664 60.6836C19.4727 61.668 16.6074 62.1602 13.9707 62.1602C10.1387 62.1602 7.53711 61.2285 6.16602 59.3652C4.83008 57.4668 4.16211 54.4082 4.16211 50.1895C4.16211 47.7285 4.32031 45.584 4.63672 43.7559C4.98828 41.8926 5.58594 40.1699 6.42969 38.5879C7.27344 36.9707 8.48633 35.7402 10.0684 34.8965C11.6855 34.0527 13.6543 33.6309 15.9746 33.6309C18.5762 33.6309 20.5625 34.0352 21.9336 34.8438ZM25.2559 49.7676C25.2559 48.3613 25.3965 46.7969 25.6777 45.0742C25.9941 43.3516 26.4512 41.541 27.0488 39.6426C27.6465 37.7441 28.543 36.1621 29.7383 34.8965C30.9336 33.6309 32.3223 32.998 33.9043 32.998C37.2793 32.998 39.9863 34.5273 42.0254 37.5859C44.0645 40.6094 45.084 43.9844 45.084 47.7109C45.084 49.293 44.9082 50.875 44.5566 52.457C44.2402 54.0039 43.7305 55.5332 43.0273 57.0449C42.3242 58.5566 41.3047 59.8223 39.9688 60.8418C38.668 61.8262 37.1387 62.3887 35.3809 62.5293C32.1465 62.1074 29.6504 60.7363 27.8926 58.416C26.1348 56.0605 25.2559 53.1777 25.2559 49.7676ZM34.2207 35.7402C32.9902 35.8809 31.9531 37.0059 31.1094 39.1152C30.2656 41.2246 29.7207 43.2812 29.4746 45.2852C29.2285 47.2539 29.1055 48.9941 29.1055 50.5059C29.1055 52.4746 29.7031 54.3027 30.8984 55.9902C32.1289 57.6426 33.5 58.4688 35.0117 58.4688C36.1016 58.4688 37.0859 58.0469 37.9648 57.2031C38.8438 56.3594 39.5293 55.3223 40.0215 54.0918C40.5488 52.8262 40.9355 51.5605 41.1816 50.2949C41.4629 49.0293 41.6035 47.9043 41.6035 46.9199C41.6035 44.0371 40.9531 41.5234 39.6523 39.3789C38.3516 37.2344 36.541 36.0215 34.2207 35.7402ZM63.4883 35.582L62.9609 37.6914C59.5508 36.2852 56.8965 35.582 54.998 35.582C53.3105 35.582 52.1152 35.8457 51.4121 36.373C50.7441 36.8652 50.4102 37.9375 50.4102 39.5898C50.4102 40.9258 50.8848 42.0332 51.834 42.9121C52.8184 43.791 53.9961 44.4941 55.3672 45.0215C56.7383 45.5137 58.1094 46.0586 59.4805 46.6562C60.8867 47.2188 62.0645 48.0625 63.0137 49.1875C63.998 50.3125 64.4902 51.7012 64.4902 53.3535C64.4902 55.6035 63.6641 57.5723 62.0117 59.2598C60.3594 60.9473 58.2148 61.8086 55.5781 61.8438C53.6445 61.8438 51.834 61.4395 50.1465 60.6309C48.459 59.8223 47.123 58.8027 46.1387 57.5723L47.668 55.9902C48.0898 56.166 48.7051 56.4473 49.5137 56.834C50.3574 57.2207 50.9551 57.4844 51.3066 57.625C51.6582 57.7305 52.168 57.8535 52.8359 57.9941C53.5391 58.1348 54.2773 58.2051 55.0508 58.2051C56.7031 58.2051 58.0566 57.8359 59.1113 57.0977C60.166 56.3594 60.6934 55.3223 60.6934 53.9863C60.6934 53.1074 60.4473 52.3691 59.9551 51.7715C59.4629 51.1387 58.8125 50.6289 58.0039 50.2422C57.1953 49.8555 56.2988 49.4863 55.3145 49.1348C54.3652 48.7832 53.3984 48.3965 52.4141 47.9746C51.4648 47.5176 50.5859 46.9902 49.7773 46.3926C48.9688 45.7598 48.3184 44.916 47.8262 43.8613C47.334 42.8066 47.0879 41.5586 47.0879 40.1172C47.0879 38.0078 47.6504 36.25 48.7754 34.8438C49.9355 33.4023 51.5527 32.6816 53.627 32.6816C54.4355 32.6816 55.3496 32.8047 56.3691 33.0508C57.3887 33.2969 58.1973 33.5254 58.7949 33.7363C59.3926 33.9473 60.2715 34.2988 61.4316 34.791C62.627 35.248 63.3125 35.5117 63.4883 35.582ZM81.0969 24.28C83.2409 24.28 85.1449 24.632 86.8089 25.336C88.4729 26.008 89.7689 27.016 90.6969 28.36C91.6569 29.704 92.1369 31.4 92.1369 33.448C92.1369 35.752 91.5129 37.576 90.2649 38.92C89.0169 40.264 87.2089 41.128 84.8409 41.512V41.704C87.7529 42.024 89.9449 42.968 91.4169 44.536C92.9209 46.104 93.6729 48.344 93.6729 51.256C93.6729 54.552 92.6329 57.08 90.5529 58.84C88.5049 60.6 85.6409 61.48 81.9609 61.48C80.1049 61.48 78.5369 61.336 77.2569 61.048C76.0089 60.76 74.8729 60.36 73.8489 59.848V72.52H69.6249V35.32C69.6249 32.728 70.1209 30.632 71.1129 29.032C72.1049 27.4 73.4649 26.2 75.1929 25.432C76.9209 24.664 78.8889 24.28 81.0969 24.28ZM81.0009 27.784C79.7209 27.784 78.5369 28.008 77.4489 28.456C76.3609 28.904 75.4809 29.688 74.8089 30.808C74.1689 31.928 73.8489 33.496 73.8489 35.512V56.056C74.9689 56.632 76.1209 57.112 77.3049 57.496C78.5209 57.848 79.9449 58.024 81.5769 58.024C84.3289 58.024 86.3289 57.416 87.5769 56.2C88.8249 54.952 89.4489 53.208 89.4489 50.968C89.4489 48.44 88.6809 46.6 87.1449 45.448C85.6089 44.264 83.5929 43.672 81.0969 43.672H78.5529V40.12H80.6169C83.1129 40.12 84.9369 39.528 86.0889 38.344C87.2409 37.16 87.8169 35.592 87.8169 33.64C87.8169 31.656 87.1929 30.184 85.9449 29.224C84.7289 28.264 83.0809 27.784 81.0009 27.784Z" />
</svg>