<svg viewBox="0 0 96 97" fill="currentColor" xmlns="http://www.w3.org/2000/svg">
  <path
    d="M85.731 82.9036C84.9093 74.8232 69.6654 48.0023 42.4091 54.207C32.9076 55.9997 15.3789 61.5196 9.72379 85.6735C7.75801 94.2716 10.982 98.4187 15.3789 94.936C19.7757 91.4533 27.099 64.5613 50.0747 64.5613C72.1648 62.4773 76.0627 94.0361 80.4495 94.936C89.5559 96.804 86.5528 90.9839 85.731 82.9036Z" />
  <path
    d="M69.608 21.8119C68.7675 33.377 64.8831 46.4637 46.7736 46.0128C34.0826 46.0128 24.3742 31.2609 24.8916 23.0337C25.767 9.11227 34.7624 0.978964 46.7736 0.0546781C59.4734 -0.922596 70.3655 11.3898 69.608 21.8119ZM34.2505 23.0337C34.2505 29.9501 39.5465 36.1921 46.7736 35.5569C53.7898 34.4802 60.0897 29.9501 60.0897 23.0337C60.0897 16.1174 54.7819 10.7534 47.8322 9.9653C41.1899 9.21205 34.2505 16.1174 34.2505 23.0337Z" />
</svg>