<svg viewBox="0 0 96 96" fill="currentColor" xmlns="http://www.w3.org/2000/svg">
  <path d="M72.7443 80C75.0947 80 77.032 78.0846 76.6883 75.7595C76.341 73.4099 75.7056 71.1065 74.7925 68.9022C73.3351 65.3837 71.199 62.1868 68.5061 59.4939C65.8132 56.801 62.6163 54.6649 59.0978 53.2075C55.5794 51.7501 51.8083 51 48 51C44.1917 51 40.4206 51.7501 36.9022 53.2075C33.3837 54.6649 30.1868 56.801 27.4939 59.4939C24.801 62.1868 22.6649 65.3837 21.2075 68.9022C20.2944 71.1065 19.659 73.4099 19.3117 75.7595C18.968 78.0846 20.9053 80 23.2557 80C25.6061 80 27.4671 78.0746 27.9518 75.7748C28.2119 74.5407 28.586 73.3302 29.071 72.1594C30.1007 69.6736 31.6098 67.4149 33.5124 65.5124C35.4149 63.6098 37.6736 62.1007 40.1594 61.071C42.6451 60.0414 45.3094 59.5114 48 59.5114C50.6906 59.5114 53.3549 60.0414 55.8406 61.071C58.3264 62.1007 60.5851 63.6098 62.4876 65.5124C64.3902 67.4149 65.8993 69.6736 66.929 72.1594C67.414 73.3302 67.7881 74.5407 68.0482 75.7748C68.5329 78.0746 70.3939 80 72.7443 80Z" />
  <path d="M63 31.5C63 40.0604 56.0604 47 47.5 47C38.9396 47 32 40.0604 32 31.5C32 22.9396 38.9396 16 47.5 16C56.0604 16 63 22.9396 63 31.5ZM39.0528 31.5C39.0528 36.1652 42.8348 39.9472 47.5 39.9472C52.1652 39.9472 55.9472 36.1652 55.9472 31.5C55.9472 26.8348 52.1652 23.0528 47.5 23.0528C42.8348 23.0528 39.0528 26.8348 39.0528 31.5Z" />
</svg>
