<svg width="48" height="66" viewBox="0 0 48 66" fill="none" xmlns="http://www.w3.org/2000/svg">
  <path
    d="M48 32.5028C48 50.4536 42.8677 62.4768 23.4803 65.0056C10.3653 66.7163 1.87598 57.8209 0.165311 39.5738C-0.975086 21.8968 7.51397 0 23.4803 0C39.4466 0 48 10.8343 48 32.5028Z"
    fill="#660EAF" />
  <path
    d="M48 32.4327C48 50.3447 38.226 66.5723 20.5871 65.4343C7.41689 64.5846 1.91142 57.4684 0.204434 39.2606C-1.03458 15.3628 2.94829 0 23.5332 0C32.5362 0 48 10.8109 48 32.4327Z"
    fill="#660EAF" />
  <path
    d="M48.1593 32.582C48.1593 53.0146 39.2259 66.5723 21.5871 65.4343C14.5 64.9771 2.23823 56.2078 0.53125 38C-0.707762 14.1022 9.96678 0 27 0C39.4668 0 48.1593 12.1493 48.1593 32.582Z"
    fill="#660EAF" />
  <path
    d="M48 32.4327C48 50.3447 41 63 23.5332 65C10.4213 66.5014 1.91139 57.4684 0.204409 39.2606C-1.0346 15.3628 9.5 0 23.5332 0C36 0 48 10.8109 48 32.4327Z"
    fill="#660EAF" />
</svg>