<svg viewBox="0 0 96 96" fill="#DDDDDD" xmlns="http://www.w3.org/2000/svg">
  <path d="M21 28.2273L36.1591 12L50 28.1084L46.7045 28.8811L36.8182 15.8636L24.2955 29L21 28.2273Z" />
  <path
    d="M1.69531 43.9062L1.09375 41.4453L19.3047 40.1875C20.2161 40.224 20.9818 40.5703 21.6016 41.2266C22.2578 41.8464 22.5859 42.5208 22.5859 43.25C22.5859 43.724 22.4036 44.1432 22.0391 44.5078C21.6745 44.8724 21.1276 45.0911 20.3984 45.1641L1.69531 43.9062Z" />
  <path
    d="M44.6797 31.8203L45.5 61.1875C45.1354 62.2812 44.5156 62.8281 43.6406 62.8281C43.0208 62.8281 42.401 62.5729 41.7812 62.0625C41.1979 61.5521 40.8333 60.9323 40.6875 60.2031L41.2344 48.3359C39.7031 49.3203 38.1172 49.8307 36.4766 49.8672C35.0911 54.4245 33.3411 57.7604 31.2266 59.875C29.1484 61.9896 25.8125 63.6849 21.2188 64.9609L20.3438 62.6094C27.1615 60.8958 31.0443 56.3932 31.9922 49.1016C30.2422 48.3724 28.7839 47.2604 27.6172 45.7656C26.487 44.2708 25.9219 42.5573 25.9219 40.625C25.9219 36.7604 26.9062 34.1901 28.875 32.9141C30.8438 31.638 33.9609 31 38.2266 31C40.4505 31 42.6016 31.2734 44.6797 31.8203ZM41.6719 43.7422L41.3984 35.1016C40.1224 34.7005 38.2448 34.5 35.7656 34.5C34.0156 34.5 32.5208 34.901 31.2812 35.7031C30.0417 36.4688 29.4219 37.7266 29.4219 39.4766C29.4219 41.4453 30.2057 43.1406 31.7734 44.5625C33.3411 45.9479 35.0547 46.6406 36.9141 46.6406C39.1016 46.6406 40.6875 45.6745 41.6719 43.7422Z" />
  <path
    d="M48.2344 35.1016L47.7422 32.6953C52.6276 32.4036 60.3203 32.0026 70.8203 31.4922C71.6953 31.5286 72.4427 31.8568 73.0625 32.4766C73.6823 33.0964 73.9922 33.7526 73.9922 34.4453C73.9922 35.5391 73.263 36.1589 71.8047 36.3047L61.5781 35.8125C61.7604 38.5469 61.8516 42.5391 61.8516 47.7891C61.888 53.0026 61.9609 56.8125 62.0703 59.2188C61.7422 60.276 61.1042 60.8047 60.1562 60.8047C59.5365 60.8047 58.9349 60.5495 58.3516 60.0391C57.7682 59.5286 57.4036 58.9089 57.2578 58.1797C57.7682 49.2109 58.2969 41.6823 58.8438 35.5938L48.2344 35.1016Z" />
  <path
    d="M76.3984 32.4766L78.8594 33.0234C78.9323 34.1901 79.0417 35.5573 79.1875 37.125C79.3698 38.6927 79.5703 40.4792 79.7891 42.4844C81.2474 42.0469 82.6328 41.8281 83.9453 41.8281C85.513 41.8281 86.9714 42.138 88.3203 42.7578C89.6693 43.3411 90.8177 44.125 91.7656 45.1094C92.7135 46.0938 93.4609 47.224 94.0078 48.5C94.5547 49.7396 94.8281 51.0156 94.8281 52.3281C94.8281 53.6042 94.5547 54.7708 94.0078 55.8281C93.4609 56.8854 92.7318 57.7969 91.8203 58.5625C90.9089 59.2917 89.8516 59.8568 88.6484 60.2578C87.4453 60.6953 86.1693 60.9141 84.8203 60.9141C84.5651 60.9141 84 60.8958 83.125 60.8594C82.25 60.8229 81.3203 60.7318 80.3359 60.5859C79.388 60.4766 78.5312 60.3125 77.7656 60.0938C77 59.875 76.599 59.5651 76.5625 59.1641C76.5625 58.5443 76.5443 57.7057 76.5078 56.6484C76.5078 55.5547 76.4896 54.3516 76.4531 53.0391C76.4531 51.7266 76.4349 50.3594 76.3984 48.9375C76.362 47.4792 76.3255 46.0755 76.2891 44.7266C76.2891 43.3776 76.2708 42.138 76.2344 41.0078C76.2344 39.8776 76.2344 38.9844 76.2344 38.3281C76.2344 36.2865 76.2891 34.3359 76.3984 32.4766ZM80.2812 45.875L79.7891 56.8672C81.2474 57.3776 82.6328 57.6328 83.9453 57.6328C84.9661 57.6328 85.8958 57.4688 86.7344 57.1406C87.6094 56.776 88.3385 56.3203 88.9219 55.7734C89.5052 55.1901 89.9609 54.5339 90.2891 53.8047C90.6172 53.0755 90.7812 52.3099 90.7812 51.5078C90.7812 50.7057 90.6172 49.9583 90.2891 49.2656C89.9609 48.5365 89.4688 47.8984 88.8125 47.3516C88.1562 46.8047 87.3542 46.3854 86.4062 46.0938C85.4583 45.7656 84.3828 45.6016 83.1797 45.6016C82.7786 45.6016 82.3411 45.638 81.8672 45.7109C81.3932 45.7474 80.8646 45.8021 80.2812 45.875Z" />
</svg>