<svg viewBox="0 0 96 96" fill="#DDDDDD" xmlns="http://www.w3.org/2000/svg">
  <path
    d="M19.7338 33.656L19.134 36.0553C15.2552 34.4558 12.2362 33.656 10.0769 33.656C8.15745 33.656 6.79788 33.956 5.99813 34.5558C5.23836 35.1156 4.85848 36.3352 4.85848 38.2146C4.85848 39.7341 5.39831 40.9938 6.47798 41.9934C7.59763 42.9931 8.93721 43.7929 10.4967 44.3927C12.0562 44.9525 13.6157 45.5723 15.1753 46.2521C16.7748 46.8919 18.1143 47.8516 19.194 49.1312C20.3137 50.4108 20.8735 51.9903 20.8735 53.8697C20.8735 56.4289 19.9338 58.6682 18.0544 60.5876C16.1749 62.507 13.7357 63.4867 10.7366 63.5267C8.53733 63.5267 6.47798 63.0669 4.55858 62.1471C2.63918 61.2274 1.11965 60.0678 0 58.6682L1.73946 56.8688C2.21931 57.0687 2.91909 57.3886 3.8388 57.8285C4.7985 58.2684 5.47829 58.5683 5.87816 58.7282C6.27804 58.8482 6.85786 58.9881 7.61762 59.1481C8.41737 59.308 9.25711 59.388 10.1368 59.388C12.0162 59.388 13.5558 58.9681 14.7554 58.1284C15.955 57.2887 16.5548 56.109 16.5548 54.5895C16.5548 53.5898 16.2749 52.7501 15.7151 52.0703C15.1553 51.3505 14.4155 50.7707 13.4958 50.3308C12.5761 49.891 11.5564 49.4711 10.4367 49.0712C9.35708 48.6714 8.25742 48.2315 7.13777 47.7516C6.05811 47.2318 5.05842 46.632 4.13871 45.9522C3.21899 45.2324 2.47923 44.2727 1.9194 43.0731C1.35958 41.8735 1.07966 40.4539 1.07966 38.8144C1.07966 36.4152 1.71946 34.4158 2.99906 32.8163C4.31865 31.1768 6.15808 30.3571 8.51734 30.3571C9.43705 30.3571 10.4767 30.497 11.6364 30.7769C12.796 31.0569 13.7157 31.3168 14.3955 31.5567C15.0753 31.7966 16.075 32.1965 17.3946 32.7563C18.7541 33.2762 19.5339 33.5761 19.7338 33.656Z" />
  <path
    d="M25.8519 31.7366L28.6111 32.3365C28.931 35.6154 29.2109 40.7738 29.4508 47.8116C29.6907 54.8094 29.8507 59.1481 29.9306 60.8276C29.5708 62.0672 28.871 62.687 27.8313 62.687C27.1115 62.687 26.4117 62.4071 25.732 61.8472C25.0922 61.2474 24.6923 60.5276 24.5323 59.6879C24.6123 58.0484 24.7723 53.7898 25.0122 46.9119C25.2521 39.9941 25.532 34.9356 25.8519 31.7366ZM26.6917 21C27.7713 21 28.671 21.4799 29.3908 22.4396C30.1106 23.3593 30.4705 24.4189 30.4705 25.6186C30.4705 26.4983 30.2505 27.2181 29.8107 27.7779C29.4108 28.2977 28.851 28.5576 28.1312 28.5576C27.0116 28.5576 26.1318 28.0978 25.492 27.1781C24.8522 26.2584 24.5323 25.1787 24.5323 23.9391C24.5323 23.0594 24.7123 22.3596 25.0722 21.8397C25.472 21.2799 26.0119 21 26.6917 21Z" />
  <path
    d="M39.4677 38.5745L39.7076 62.3271C39.1078 62.647 38.388 62.8069 37.5483 62.8069C36.9085 62.8069 36.1887 62.707 35.3889 62.507C35.5089 59.9878 35.5889 55.0294 35.6289 47.6317C35.6689 40.234 35.8288 34.7557 36.1087 31.1968L38.8079 31.7966L38.9878 35.1556C41.1072 32.9163 43.5464 31.7966 46.3055 31.7966C47.7051 31.7966 48.8247 31.8966 49.6645 32.0965C50.5042 32.2965 51.304 32.7963 52.0637 33.5961C52.8635 34.3558 53.4633 35.3755 53.8632 36.6551C54.263 37.9347 54.6229 39.7741 54.9428 42.1734C55.2627 44.5326 55.4827 47.3118 55.6026 50.5108C55.7626 53.6698 55.8625 57.6685 55.9025 62.507C55.6626 62.587 55.2027 62.627 54.523 62.627C53.0834 62.627 51.9638 62.447 51.164 62.0872C51.0041 61.4474 50.9241 60.3877 50.9241 58.9082C50.9241 58.1484 50.9441 56.7288 50.9841 54.6495C51.064 52.5301 51.104 50.8907 51.104 49.731C51.104 47.8116 51.0241 46.1321 50.8641 44.6926C50.7441 43.253 50.4842 41.8335 50.0843 40.4339C49.7245 39.0344 49.1446 37.9547 48.3449 37.1949C47.5851 36.4352 46.6254 36.0553 45.4658 36.0553C44.1462 36.0553 43.1065 36.1553 42.3468 36.3552C41.627 36.5551 41.1072 36.7951 40.7873 37.075C40.5073 37.3549 40.0675 37.8547 39.4677 38.5745Z" />
  <path
    d="M73.2671 30.0872L72.2174 34.7657C68.0787 36.1453 66.0094 39.7641 66.0094 45.6223C66.0094 48.7213 66.8191 51.4905 68.4386 53.9297C70.0781 56.349 72.5173 57.9085 75.7563 58.6082V38.8144C75.7563 36.6951 75.9063 35.0656 76.2062 33.926C76.5061 32.7663 77.1859 31.8266 78.2455 31.1068C79.3252 30.3671 80.7848 29.9972 82.6242 29.9972C85.4833 29.9972 87.8026 30.577 89.582 31.7366C91.3814 32.8963 92.901 34.7257 94.1406 37.2249C95.3802 39.7241 96 42.4133 96 45.2924C96 47.6917 95.5102 50.1009 94.5305 52.5201C93.5508 54.9194 91.9613 57.1287 89.7619 59.1481C87.5626 61.1674 84.6735 62.557 81.0947 63.3168V74.7732H75.7563V63.3168C72.0375 63.3168 68.5586 61.6873 65.3196 58.4283C62.0806 55.1693 60.4611 50.9806 60.4611 45.8622C60.4611 41.1237 61.7507 37.2949 64.3299 34.3758C66.9291 31.4367 69.9081 30.0072 73.2671 30.0872ZM81.0947 58.3683C83.6339 57.9085 85.8032 56.4889 87.6026 54.1097C89.4221 51.7304 90.3318 48.6114 90.3318 44.7526C90.3318 41.1737 89.672 38.5645 88.3524 36.925C87.0328 35.2855 85.6332 34.4658 84.1537 34.4658C83.094 34.4658 82.3143 34.8357 81.8144 35.5754C81.3346 36.2952 81.0947 37.8947 81.0947 40.3739V58.3683Z" />
</svg>