<svg viewBox="0 0 96 96" fill="none" xmlns="http://www.w3.org/2000/svg">
  <path
    d="M48.0024 24.0335L48.0547 24.0347H48.107C56.3631 24.0347 63.9685 28.146 69.6143 34.4198C75.2889 40.7257 78.607 48.8121 78.607 56.0347C78.607 64.8978 75.787 72.6319 70.7863 78.1001C65.8351 83.5142 58.4535 87.0347 48.6071 87.0347C31.6717 87.0347 17.9348 72.6761 16.5931 55.6805C15.234 38.4657 29.0393 23.5925 48.0024 24.0335Z"
    stroke="currentColor" stroke-width="9" />
  <path d="M47 52.5L68 45.5L47 61L34 50L47 52.5Z" fill="currentColor" />
  <path fill-rule="evenodd" clip-rule="evenodd"
    d="M45.1415 12.2531C45.1191 12.5044 45.1071 12.7651 45.1071 13.0347C45.1071 15.2674 46.2013 16.454 46.4915 16.7141C46.676 16.8796 46.8011 16.9388 46.8407 16.9558C46.8863 16.9755 46.9129 16.9797 46.93 16.9813C47.1711 17.0032 47.3967 17.0063 47.607 16.9947C48.7346 16.9323 49.4243 16.446 49.7272 16.1634C49.9544 15.9513 50.2849 15.5712 50.5717 14.9237C50.7607 14.4969 50.9703 13.8545 51.0447 13.0347C51.0839 12.6034 51.0858 12.123 51.0275 11.5991C50.8746 10.2227 50.6071 9.03468 50.1071 8.53468C49.6071 8.03468 49.1071 7.53467 47.607 7.53467C47.607 7.53467 47.1071 7.53468 46.6071 8.03468C46.1071 8.53468 45.3204 10.2383 45.1415 12.2531ZM47.607 20.5347C51.107 20.5347 58.1071 17.5347 58.1071 13.0347C58.1071 8.53467 53.607 4.53468 48.107 4.03468C42.607 3.53468 37.607 8.53467 38.1071 13.0347C38.6071 17.5347 44.107 20.5347 47.607 20.5347Z"
    fill="currentColor" />
</svg>