<svg viewBox="0 0 96 96" fill="currentColor" xmlns="http://www.w3.org/2000/svg">
  <path fill-rule="evenodd" clip-rule="evenodd"
    d="M23.2549 30.4452C21.5838 31.0081 20.6808 31.9519 19.634 35.324C18.5448 38.8323 18.7737 41.9899 18.7737 47.4966C18.9791 52.9671 19.3803 58.47 21.393 63.3344C23.4495 68.3047 26.2072 72.0185 28.0827 73.7441C28.5788 74.2005 29.795 75.1535 31.1001 75.5736C32.9619 76.173 34.4068 76.3182 36.5314 76.1835C38.6174 76.0512 41.1291 75.7648 42.9148 75.5046C43.2591 75.4544 43.6322 75.3988 43.9971 75.3444C44.4869 75.2713 44.962 75.2004 45.3331 75.148L45.3352 75.1477C45.8911 75.0691 46.8612 74.932 47.7054 74.9215C48.6412 74.9098 49.7134 75.065 50.2563 75.1435C50.2804 75.147 50.3035 75.1504 50.3255 75.1535C50.689 75.2059 51.0057 75.2535 51.3262 75.3016C51.7728 75.3687 52.2269 75.4369 52.8253 75.5208C54.6713 75.7796 55.5209 76.1502 57.6531 76.1835C62.5723 76.2602 66.5931 74.642 67.3088 73.7018C70.0114 70.1513 70.3262 68.2555 75.154 59.1079C78.0507 53.6193 78.9953 46.3011 78.1713 40.2027C77.7436 37.0375 76.7095 32.3445 73.947 30.4534C70.6646 28.2064 68.4575 27.7504 63.0844 28.0058C60.4988 28.1288 56.0837 28.8054 54 29.5C52.5 30 48.7444 30.4534 46.9366 30.4534C45.1288 30.4534 43.0588 30.1624 41.3851 29.925C41.175 29.8952 40.9653 29.8653 40.7557 29.8354C39.1063 29.6 35.8693 29.3801 34.1175 29.2173C30.1642 28.85 26.7055 29.2829 23.2549 30.4452ZM20.2374 22.5173C27.2046 20.1703 34.4862 21.2104 39.8146 21.9714C41.8706 22.2651 43.6358 22.5173 44.98 22.5173C47.1723 22.5173 49.7597 22.2009 52.5718 21.8572C60.5967 20.8761 70.4508 19.6714 78.1713 24.9566C96.8791 37.7633 76.9643 70.085 70.9296 78.013C65.9443 84.5622 53.9581 82.7675 48.5789 81.9621C47.4464 81.7926 46.6068 81.6668 46.187 81.6721C45.718 81.6779 44.7683 81.8197 43.5031 82.0087C38.256 82.7925 27.5811 84.387 23.2549 80.4524C11.1854 69.4752 2.13317 28.6157 20.2374 22.5173Z" />
  <path d="M57.25 8L66 9.85714L46 21L57.25 8Z" />
</svg>